{"glyphs":{"0":{"ha":958,"x_min":78,"x_max":881,"o":"m 336 725 q 313 681 336 725 q 290 490 290 636 q 336 256 290 344 q 479 167 382 167 q 622 256 576 167 q 668 490 668 344 q 622 725 668 636 q 479 814 576 814 q 336 725 382 814 m 479 -11 q 378 -11 479 -11 q 178 126 278 -11 q 78 491 78 263 q 178 856 78 719 q 479 993 278 993 q 781 856 681 993 q 881 491 881 719 q 781 126 881 263 q 479 -11 681 -11 z "},"1":{"ha":560,"x_min":43,"x_max":436,"o":"m 43 971 l 436 971 l 436 0 l 228 0 l 228 786 l 43 786 l 43 971 z "},"2":{"ha":840,"x_min":64,"x_max":765,"o":"m 365 453 q 488 592 451 540 q 525 693 525 644 q 493 774 525 742 q 411 807 461 807 q 238 676 319 807 l 64 779 q 213 939 132 885 q 420 993 294 993 q 641 913 546 993 q 736 696 736 833 q 698 552 736 621 q 557 376 660 483 l 382 194 l 765 194 l 765 0 l 81 0 l 81 161 l 365 453 z "},"3":{"ha":821,"x_min":50,"x_max":744,"o":"m 104 786 l 104 971 l 699 971 l 699 821 l 500 594 q 681 497 617 575 q 744 315 744 418 q 641 76 744 163 q 376 -11 538 -11 q 50 103 215 -11 l 139 275 q 385 178 276 178 q 492 210 450 178 q 535 302 535 242 q 486 398 535 363 q 351 433 438 433 q 222 407 306 433 l 222 567 l 408 786 l 104 786 z "},"4":{"ha":817,"x_min":50,"x_max":758,"o":"m 440 419 l 440 589 l 649 589 l 649 419 l 758 419 l 758 232 l 649 232 l 649 0 l 440 0 l 440 232 l 50 232 l 50 397 l 396 971 l 632 971 l 303 419 l 440 419 z "},"5":{"ha":828,"x_min":68,"x_max":761,"o":"m 703 971 l 703 783 l 319 783 l 319 621 q 418 633 363 633 q 660 549 558 633 q 761 320 761 464 q 656 83 761 176 q 397 -11 551 -11 q 68 135 200 -11 l 182 293 q 215 263 194 281 q 292 215 236 244 q 403 185 347 185 q 501 218 458 185 q 544 317 544 251 q 498 417 544 382 q 378 453 451 453 q 207 400 304 453 l 117 497 l 117 971 l 703 971 z "},"6":{"ha":875,"x_min":78,"x_max":801,"o":"m 492 807 q 352 747 401 807 q 292 582 303 686 q 483 640 382 640 q 710 551 619 640 q 801 315 801 463 q 703 78 801 167 q 457 -11 606 -11 q 278 28 354 -11 q 161 139 203 68 q 78 483 78 276 q 110 717 78 617 q 200 876 143 818 q 475 993 311 993 q 605 973 543 993 q 700 932 667 953 q 774 879 733 911 l 671 726 q 647 749 663 735 q 583 785 631 763 q 492 807 536 807 m 463 457 q 431 457 463 457 q 355 419 399 457 q 311 319 311 381 q 353 215 311 258 q 457 171 394 171 q 561 210 519 171 q 603 310 603 249 q 565 415 603 372 q 463 457 528 457 z "},"7":{"ha":804,"x_min":65,"x_max":767,"o":"m 65 660 l 65 971 l 767 971 l 767 807 l 374 0 l 138 0 l 513 785 l 268 785 l 268 660 l 65 660 z "},"8":{"ha":892,"x_min":75,"x_max":817,"o":"m 205 917 q 253 955 205 917 q 446 993 301 993 q 686 917 590 993 q 782 728 782 840 q 696 536 782 617 q 817 292 817 443 q 714 76 817 164 q 446 -11 611 -11 q 178 76 281 -11 q 75 292 75 164 q 196 536 75 443 q 108 729 108 618 q 205 917 108 840 m 340 202 q 365 186 340 202 q 446 169 389 169 q 551 202 503 169 q 600 297 600 235 q 553 393 600 360 q 446 426 506 426 q 339 393 386 426 q 292 297 292 360 q 340 202 292 235 m 353 626 q 373 610 353 626 q 446 593 393 593 q 538 626 499 593 q 578 709 578 660 q 539 792 578 758 q 446 825 500 825 q 353 792 392 825 q 314 709 314 758 q 353 626 314 660 z "},"9":{"ha":874,"x_min":72,"x_max":796,"o":"m 382 175 q 522 235 472 175 q 582 400 571 296 q 390 340 493 340 q 163 430 254 340 q 72 667 72 519 q 170 903 72 814 q 417 993 268 993 q 595 953 519 993 q 714 843 671 914 q 796 499 796 706 q 763 265 796 365 q 675 106 731 164 q 399 -11 561 -11 q 268 9 331 -11 q 174 49 206 29 q 100 101 142 69 l 208 254 q 234 233 218 246 q 296 197 250 219 q 382 175 342 175 m 412 525 q 444 525 412 525 q 519 563 476 525 q 563 661 563 600 q 521 767 563 722 q 417 811 479 811 q 315 772 354 811 q 275 671 275 732 q 311 567 275 610 q 412 525 347 525 z "},"\u0000":{"ha":0,"x_min":0,"x_max":0,"o":""},"\r":{"ha":367,"x_min":0,"x_max":0,"o":""}," ":{"ha":367,"x_min":0,"x_max":0,"o":""},"!":{"ha":438,"x_min":96,"x_max":342,"o":"m 96 971 l 342 971 l 342 799 l 300 299 l 136 299 l 96 799 l 96 971 m 131 24 q 114 42 131 24 q 96 111 96 60 q 131 198 96 163 q 218 233 167 233 q 305 198 269 233 q 340 111 340 163 q 305 24 340 60 q 218 -11 269 -11 q 131 24 167 -11 z "},"\"":{"ha":601,"x_min":99,"x_max":503,"o":"m 99 599 l 99 971 l 264 971 l 264 599 l 99 599 m 338 599 l 338 971 l 503 971 l 503 599 l 338 599 z "},"#":{"ha":1038,"x_min":61,"x_max":978,"o":"m 940 576 l 800 576 l 771 403 l 931 403 l 893 211 l 739 211 l 703 0 l 494 0 l 531 211 l 404 211 l 368 0 l 158 0 l 194 211 l 61 211 l 99 403 l 228 403 l 257 576 l 108 576 l 146 768 l 289 768 l 326 993 l 536 993 l 499 768 l 624 768 l 661 993 l 872 993 l 832 768 l 978 768 l 940 576 m 593 576 l 467 576 l 436 403 l 563 403 q 593 576 581 514 z "},"$":{"ha":882,"x_min":50,"x_max":815,"o":"m 375 -96 l 375 6 q 50 165 199 33 l 179 322 q 375 201 288 228 l 375 408 q 161 509 229 446 q 93 691 93 572 q 171 887 93 810 q 375 979 249 964 l 375 1047 l 522 1047 l 522 976 q 799 861 661 957 l 685 697 q 522 781 597 760 l 522 581 q 744 476 672 542 q 815 292 815 411 q 735 94 815 172 q 522 1 656 17 l 522 -96 l 375 -96 m 593 281 q 578 329 593 310 q 522 365 563 349 l 522 194 q 593 281 593 217 m 375 786 q 315 710 315 765 q 375 625 315 654 l 375 786 z "},"%":{"ha":1138,"x_min":89,"x_max":1046,"o":"m 1032 971 l 336 0 l 97 0 l 794 971 l 1032 971 m 799 134 q 807 125 799 134 q 840 115 815 115 q 882 134 865 115 q 899 183 899 153 q 882 234 899 214 q 841 254 865 254 q 800 234 817 254 q 783 183 783 214 q 799 134 783 153 m 1046 183 q 1046 142 1046 183 q 988 45 1046 101 q 841 -11 929 -11 q 694 46 753 -11 q 636 184 636 103 q 694 322 636 265 q 841 379 753 379 q 988 322 929 379 q 1046 183 1046 265 m 252 702 q 260 693 252 702 q 293 683 268 683 q 335 702 318 683 q 351 751 351 721 q 335 802 351 782 q 294 822 318 822 q 253 802 269 822 q 236 751 236 782 q 252 702 236 721 m 499 751 q 499 710 499 751 q 440 613 499 669 q 294 557 382 557 q 147 614 206 557 q 89 752 89 671 q 147 890 89 833 q 294 947 206 947 q 440 890 382 947 q 499 751 499 833 z "},"&":{"ha":972,"x_min":65,"x_max":944,"o":"m 686 83 q 416 -11 569 -11 q 164 67 263 -11 q 65 282 65 146 q 269 553 65 435 q 203 651 224 608 q 182 750 182 693 q 267 931 182 868 q 469 993 353 993 q 669 933 586 993 q 751 764 751 872 q 553 511 751 628 q 669 371 631 414 q 722 506 704 435 l 885 389 q 807 226 853 301 l 944 90 l 807 -40 l 686 83 m 272 275 q 313 194 272 226 q 417 163 353 163 q 554 224 481 163 q 379 418 453 331 q 272 275 272 351 m 469 829 q 454 829 469 829 q 415 808 439 829 q 390 749 390 786 q 446 643 390 713 q 550 747 550 699 q 525 808 550 788 q 469 829 500 829 z "},"'":{"ha":363,"x_min":99,"x_max":264,"o":"m 99 599 l 99 971 l 264 971 l 264 599 l 99 599 z "},"(":{"ha":503,"x_min":63,"x_max":468,"o":"m 468 1047 q 327 756 385 928 q 269 435 269 585 q 327 114 269 286 q 468 -176 385 -58 l 243 -176 q 119 94 175 -81 q 63 435 63 268 q 119 776 63 601 q 243 1047 175 951 l 468 1047 z "},")":{"ha":503,"x_min":35,"x_max":440,"o":"m 35 -176 q 176 114 118 -58 q 233 435 233 286 q 176 756 233 585 q 35 1047 118 928 l 260 1047 q 384 776 328 951 q 440 435 440 601 q 384 94 440 268 q 260 -176 328 -81 l 35 -176 z "},"*":{"ha":633,"x_min":76,"x_max":557,"o":"m 386 621 l 394 504 l 239 504 l 247 621 l 149 553 l 78 679 l 194 738 l 76 796 l 149 919 l 247 854 l 239 971 l 394 971 l 386 854 l 485 919 l 557 796 l 439 738 l 556 679 l 485 553 l 386 621 z "},"+":{"ha":811,"x_min":67,"x_max":744,"o":"m 310 151 l 310 401 l 67 401 l 67 572 l 310 572 l 310 822 l 501 822 l 501 572 l 744 572 l 744 401 l 501 401 l 501 151 l 310 151 z "},",":{"ha":413,"x_min":74,"x_max":335,"o":"m 126 17 q 78 107 78 51 q 115 198 78 163 q 206 233 153 233 q 297 199 258 233 q 335 117 335 164 q 294 6 335 71 l 211 -137 l 74 -137 l 126 17 z "},"-":{"ha":681,"x_min":93,"x_max":588,"o":"m 93 325 l 93 510 l 588 510 l 588 325 l 93 325 z "},".":{"ha":400,"x_min":78,"x_max":322,"o":"m 113 24 q 95 42 113 24 q 78 111 78 60 q 113 198 78 163 q 200 233 149 233 q 287 198 251 233 q 322 111 322 163 q 287 24 322 60 q 200 -11 251 -11 q 113 24 149 -11 z "},"/":{"ha":853,"x_min":38,"x_max":817,"o":"m 619 1118 l 817 1118 l 233 -156 l 38 -156 l 619 1118 z "},":":{"ha":431,"x_min":93,"x_max":338,"o":"m 128 24 q 111 42 128 24 q 93 111 93 60 q 128 198 93 163 q 215 233 164 233 q 302 198 267 233 q 338 111 338 163 q 302 24 338 60 q 215 -11 267 -11 q 128 24 164 -11 m 128 390 q 111 407 128 390 q 93 476 93 425 q 128 563 93 528 q 215 599 164 599 q 302 563 267 599 q 338 476 338 528 q 302 390 338 425 q 215 354 267 354 q 128 390 164 354 z "},";":{"ha":438,"x_min":89,"x_max":351,"o":"m 143 14 q 93 106 93 50 q 131 197 93 161 q 222 232 168 232 q 313 197 275 232 q 351 117 351 163 q 311 3 351 72 l 225 -140 l 89 -140 l 143 14 m 128 390 q 111 407 128 390 q 93 476 93 425 q 128 563 93 528 q 215 599 164 599 q 302 563 267 599 q 338 476 338 528 q 302 390 338 425 q 215 354 267 354 q 128 390 164 354 z "},"<":{"ha":835,"x_min":57,"x_max":732,"o":"m 57 453 l 57 643 l 732 961 l 732 757 l 286 551 l 732 340 l 732 135 l 57 453 z "},"=":{"ha":815,"x_min":69,"x_max":746,"o":"m 69 747 l 746 747 l 746 576 l 69 576 l 69 747 m 69 401 l 746 401 l 746 231 l 69 231 l 69 401 z "},">":{"ha":835,"x_min":103,"x_max":778,"o":"m 778 643 l 778 453 l 103 135 l 103 340 l 549 551 l 103 757 l 103 961 l 778 643 z "},"?":{"ha":728,"x_min":49,"x_max":658,"o":"m 460 289 l 249 289 l 249 393 q 263 478 249 450 q 325 556 278 507 l 419 653 q 440 717 440 678 q 418 783 440 757 q 360 810 396 810 q 299 778 324 810 q 269 696 275 747 l 49 696 q 150 914 64 835 q 366 993 236 993 q 577 922 496 993 q 658 726 658 851 q 644 644 658 671 q 625 605 631 617 q 599 569 619 593 q 572 539 579 546 q 509 476 539 506 q 469 428 479 447 q 460 372 460 410 l 460 289 m 270 24 q 252 42 270 24 q 235 111 235 60 q 270 198 235 163 q 357 233 306 233 q 444 198 408 233 q 479 111 479 163 q 444 24 479 60 q 357 -11 408 -11 q 270 24 306 -11 z "},"@":{"ha":1238,"x_min":67,"x_max":1171,"o":"m 956 169 q 1022 229 993 169 q 1050 379 1050 289 q 938 703 1050 575 q 636 832 825 832 q 318 697 447 832 q 189 374 189 563 q 310 61 189 186 q 611 -64 432 -64 q 858 39 751 -64 l 915 -60 q 774 -138 860 -108 q 611 -168 688 -168 q 223 -13 379 -168 q 67 374 67 142 q 231 772 67 607 q 628 936 396 936 q 1015 778 860 936 q 1171 383 1171 619 q 1108 138 1171 231 q 942 46 1044 46 q 845 78 889 46 q 785 158 801 110 q 591 60 708 60 q 387 149 474 60 q 300 374 300 238 q 378 605 300 511 q 585 699 457 699 q 667 680 628 699 q 722 643 706 661 l 740 625 l 740 682 l 914 682 l 914 239 q 956 169 914 169 m 742 379 q 742 414 742 379 q 705 494 742 449 q 608 540 668 540 q 513 494 549 540 q 478 381 478 449 q 513 264 478 314 q 610 214 549 214 q 706 262 671 214 q 742 379 742 310 z "},"A":{"ha":1035,"x_min":-7,"x_max":1042,"o":"m 811 0 l 721 210 l 314 210 l 224 0 l -7 0 l 413 971 l 622 971 l 1042 0 l 811 0 m 518 682 l 396 400 l 639 400 l 518 682 z "},"B":{"ha":957,"x_min":119,"x_max":894,"o":"m 544 0 l 119 0 l 119 971 l 497 971 q 667 947 596 971 q 775 883 739 924 q 840 714 840 808 q 767 544 840 600 q 732 520 742 525 q 697 504 722 515 q 841 423 788 485 q 894 269 894 361 q 825 90 894 168 q 544 0 744 0 m 336 578 l 439 578 q 573 597 529 578 q 617 681 617 617 q 576 767 617 746 q 440 788 536 788 l 336 788 l 336 578 m 336 183 l 485 183 q 624 206 578 183 q 671 297 671 229 q 622 385 671 364 q 464 407 572 407 l 336 407 l 336 183 z "},"C":{"ha":1017,"x_min":61,"x_max":971,"o":"m 565 192 q 826 318 725 192 l 965 175 q 576 -11 800 -11 q 206 131 351 -11 q 61 488 61 272 q 209 849 61 704 q 571 993 357 993 q 971 811 810 993 l 836 658 q 581 786 733 786 q 372 706 458 786 q 285 491 285 626 q 367 274 285 356 q 565 192 449 192 z "},"D":{"ha":1068,"x_min":119,"x_max":1000,"o":"m 463 971 q 861 844 722 971 q 1000 490 1000 717 q 865 132 1000 264 q 451 0 729 0 l 119 0 l 119 971 l 463 971 m 474 192 q 702 267 622 192 q 782 485 782 342 q 702 705 782 628 q 457 782 622 782 l 336 782 l 336 192 l 474 192 z "},"E":{"ha":908,"x_min":119,"x_max":835,"o":"m 819 971 l 819 778 l 336 778 l 336 578 l 771 578 l 771 393 l 336 393 l 336 192 l 835 192 l 835 0 l 119 0 l 119 971 l 819 971 z "},"F":{"ha":850,"x_min":119,"x_max":786,"o":"m 786 971 l 786 781 l 336 781 l 336 571 l 764 571 l 764 381 l 336 381 l 336 0 l 119 0 l 119 971 l 786 971 z "},"G":{"ha":1042,"x_min":64,"x_max":968,"o":"m 750 494 l 968 494 l 968 150 q 568 -11 824 -11 q 209 131 354 -11 q 64 488 64 272 q 212 849 64 704 q 569 993 360 993 q 932 856 778 993 l 819 693 q 699 772 754 750 q 581 793 644 793 q 372 709 457 793 q 288 488 288 625 q 369 267 288 350 q 563 185 450 185 q 750 228 675 185 l 750 494 z "},"H":{"ha":1058,"x_min":119,"x_max":939,"o":"m 722 971 l 939 971 l 939 0 l 722 0 l 722 382 l 336 382 l 336 0 l 119 0 l 119 971 l 336 971 l 336 565 l 722 565 l 722 971 z "},"I":{"ha":456,"x_min":119,"x_max":336,"o":"m 119 971 l 336 971 l 336 0 l 119 0 l 119 971 z "},"J":{"ha":772,"x_min":36,"x_max":661,"o":"m 156 785 l 156 971 l 661 971 l 661 338 q 572 78 661 164 q 342 -8 482 -8 q 36 126 167 -8 l 149 282 q 332 188 236 188 q 410 223 378 188 q 443 329 443 258 l 443 785 l 156 785 z "},"K":{"ha":986,"x_min":119,"x_max":971,"o":"m 119 971 l 336 971 l 336 572 l 703 971 l 971 971 l 585 542 q 769 283 635 472 q 971 0 904 93 l 718 0 l 433 383 l 336 275 l 336 0 l 119 0 l 119 971 z "},"L":{"ha":789,"x_min":119,"x_max":750,"o":"m 119 0 l 119 971 l 336 971 l 336 193 l 750 193 l 750 0 l 119 0 z "},"M":{"ha":1325,"x_min":119,"x_max":1206,"o":"m 989 611 l 726 81 l 597 81 l 336 611 l 336 0 l 119 0 l 119 971 l 413 971 l 663 438 l 914 971 l 1206 971 l 1206 0 l 989 0 l 989 611 z "},"N":{"ha":1135,"x_min":119,"x_max":1015,"o":"m 799 971 l 1015 971 l 1015 0 l 799 0 l 336 608 l 336 0 l 119 0 l 119 971 l 322 971 l 799 346 l 799 971 z "},"O":{"ha":1147,"x_min":64,"x_max":1083,"o":"m 863 491 q 863 556 863 491 q 779 713 863 621 q 574 804 696 804 q 369 713 453 804 q 286 491 286 621 q 369 270 286 361 q 574 179 453 179 q 779 270 696 179 q 863 491 863 361 m 936 134 q 863 62 936 134 q 574 -10 789 -10 q 211 134 358 -10 q 64 492 64 278 q 211 849 64 706 q 574 993 358 993 q 936 849 789 993 q 1083 492 1083 706 q 936 134 1083 278 z "},"P":{"ha":940,"x_min":119,"x_max":890,"o":"m 463 971 q 788 884 686 971 q 890 617 890 797 q 785 354 890 438 q 465 271 681 271 l 336 271 l 336 0 l 119 0 l 119 971 l 463 971 m 482 458 q 629 502 590 458 q 668 630 668 546 q 617 749 668 714 q 460 785 567 785 l 336 785 l 336 458 l 482 458 z "},"Q":{"ha":1149,"x_min":64,"x_max":1160,"o":"m 1083 492 q 1006 219 1083 340 q 799 39 929 99 q 838 3 811 18 q 894 -11 865 -11 q 951 -2 924 -11 q 996 19 979 7 q 1047 76 1032 49 l 1160 -58 q 861 -185 1040 -185 q 697 -139 778 -185 q 574 -10 617 -93 q 211 134 358 -10 q 64 492 64 278 q 211 849 64 706 q 574 993 358 993 q 936 849 789 993 q 1083 492 1083 706 m 863 491 q 863 556 863 491 q 779 713 863 621 q 574 804 696 804 q 369 713 453 804 q 286 491 286 621 q 369 270 286 361 q 574 179 453 179 q 779 270 696 179 q 863 491 863 361 z "},"R":{"ha":1010,"x_min":119,"x_max":968,"o":"m 907 649 q 722 347 907 415 l 968 0 l 701 0 l 486 310 l 336 310 l 336 0 l 119 0 l 119 971 l 488 971 q 810 894 714 971 q 907 649 907 818 m 494 497 q 646 533 606 497 q 686 648 686 569 q 644 756 686 726 q 499 785 603 785 l 336 785 l 336 497 l 494 497 z "},"S":{"ha":886,"x_min":50,"x_max":821,"o":"m 432 803 q 347 777 378 803 q 315 709 315 751 q 353 642 315 667 q 530 583 392 617 q 744 481 668 549 q 821 282 821 413 q 723 70 821 151 q 465 -11 625 -11 q 50 160 235 -11 l 179 318 q 469 181 336 181 q 563 206 529 181 q 597 276 597 232 q 561 345 597 319 q 418 397 525 371 q 170 502 249 438 q 92 705 92 567 q 191 918 92 843 q 439 993 290 993 q 633 960 536 993 q 803 865 731 926 l 693 707 q 432 803 567 803 z "},"T":{"ha":844,"x_min":39,"x_max":806,"o":"m 531 783 l 531 0 l 314 0 l 314 783 l 39 783 l 39 971 l 806 971 l 806 783 l 531 783 z "},"U":{"ha":1043,"x_min":106,"x_max":938,"o":"m 376 251 q 403 217 376 251 q 522 183 431 183 q 667 251 614 183 q 721 435 721 318 l 721 971 l 938 971 l 938 428 q 821 103 938 217 q 522 -10 704 -10 q 223 104 340 -10 q 106 428 106 218 l 106 971 l 322 971 l 322 435 q 376 251 322 318 z "},"V":{"ha":956,"x_min":-4,"x_max":960,"o":"m 478 353 l 725 971 l 960 971 l 569 0 l 386 0 l -4 971 l 231 971 l 478 353 z "},"W":{"ha":1415,"x_min":-4,"x_max":1419,"o":"m 422 413 l 594 971 l 821 971 l 992 413 l 1185 971 l 1419 971 l 1081 0 l 919 0 l 707 675 l 496 0 l 335 0 l -4 971 l 231 971 l 422 413 z "},"X":{"ha":965,"x_min":14,"x_max":951,"o":"m 665 971 l 926 971 l 624 503 l 951 0 l 688 0 l 481 319 l 275 0 l 14 0 l 340 497 l 36 971 l 296 971 l 481 683 l 665 971 z "},"Y":{"ha":858,"x_min":-15,"x_max":874,"o":"m 538 0 l 321 0 l 321 383 l -15 971 l 219 971 l 429 610 l 639 971 l 874 971 l 538 383 l 538 0 z "},"Z":{"ha":946,"x_min":64,"x_max":876,"o":"m 64 0 l 64 149 l 572 783 l 81 783 l 81 971 l 868 971 l 868 821 l 361 189 l 876 189 l 876 0 l 64 0 z "},"[":{"ha":519,"x_min":107,"x_max":464,"o":"m 464 1051 l 464 894 l 285 894 l 285 -29 l 464 -29 l 464 -186 l 107 -186 l 107 1051 l 464 1051 z "},"\\":{"ha":794,"x_min":39,"x_max":754,"o":"m 39 1051 l 249 1051 l 754 0 l 544 0 l 39 1051 z "},"]":{"ha":519,"x_min":56,"x_max":413,"o":"m 56 -186 l 56 -29 l 235 -29 l 235 894 l 56 894 l 56 1051 l 413 1051 l 413 -186 l 56 -186 z "},"^":{"ha":671,"x_min":31,"x_max":640,"o":"m 229 1071 l 31 1071 l 221 1317 l 450 1317 l 640 1071 l 442 1071 l 335 1189 l 229 1071 z "},"_":{"ha":1000,"x_min":93,"x_max":907,"o":"m 93 -183 l 93 -62 l 907 -62 l 907 -183 l 93 -183 z "},"`":{"ha":531,"x_min":69,"x_max":461,"o":"m 461 1068 l 263 1068 l 69 1224 l 283 1315 l 461 1068 z "},"a":{"ha":825,"x_min":58,"x_max":733,"o":"m 733 0 l 538 0 l 538 90 q 338 -11 457 -11 q 139 58 219 -11 q 58 241 58 126 q 142 413 58 356 q 369 469 225 469 l 525 469 l 525 474 q 399 593 525 593 q 284 572 344 593 q 182 518 224 550 l 89 653 q 425 760 236 760 q 647 692 561 760 q 733 476 733 624 l 733 0 m 524 285 l 524 321 l 393 321 q 268 243 268 321 q 298 181 268 203 q 383 160 328 160 q 481 194 439 160 q 524 285 524 228 z "},"b":{"ha":925,"x_min":99,"x_max":868,"o":"m 529 760 q 597 760 529 760 q 767 653 665 760 q 868 381 868 547 q 764 101 868 214 q 527 -11 660 -11 q 307 99 394 -11 l 307 0 l 99 0 l 99 1031 l 307 1031 l 307 664 q 529 760 393 760 m 304 373 q 304 327 304 373 q 355 224 304 282 q 478 167 406 167 q 604 224 550 167 q 658 372 658 282 q 606 524 658 463 q 479 585 553 585 q 355 524 406 585 q 304 373 304 464 z "},"c":{"ha":808,"x_min":56,"x_max":768,"o":"m 457 174 q 644 278 561 174 l 768 139 q 456 -11 624 -11 q 172 95 288 -11 q 56 373 56 201 q 173 652 56 544 q 451 760 290 760 q 615 726 532 760 q 760 628 697 693 l 651 486 q 563 553 615 529 q 460 576 511 576 q 319 523 378 576 q 260 374 260 469 q 319 226 260 279 q 457 174 378 174 z "},"d":{"ha":925,"x_min":57,"x_max":826,"o":"m 398 -11 q 332 -11 398 -11 q 161 101 265 -11 q 57 381 57 214 q 158 653 57 547 q 396 760 260 760 q 618 664 532 760 l 618 1031 l 826 1031 l 826 0 l 618 0 l 618 99 q 398 -11 531 -11 m 267 372 q 267 327 267 372 q 321 224 267 282 q 447 167 375 167 q 570 224 519 167 q 621 373 621 282 q 570 524 621 464 q 446 585 519 585 q 319 524 372 585 q 267 372 267 463 z "},"e":{"ha":858,"x_min":57,"x_max":807,"o":"m 746 108 q 449 -11 619 -11 q 168 94 279 -11 q 57 375 57 199 q 170 656 57 551 q 438 760 283 760 q 699 667 592 760 q 807 411 807 574 l 807 300 l 263 300 q 326 200 272 239 q 449 161 381 161 q 629 235 558 161 l 746 108 m 596 449 q 546 551 589 515 q 441 588 503 588 q 328 550 379 588 q 268 449 276 513 l 596 449 z "},"f":{"ha":558,"x_min":50,"x_max":597,"o":"m 347 790 l 347 740 l 528 740 l 528 590 l 347 590 l 347 0 l 138 0 l 138 590 l 50 590 l 50 740 l 138 740 l 138 786 q 212 980 138 908 q 397 1051 286 1051 q 597 968 507 1051 l 522 828 q 421 881 476 881 q 368 858 389 881 q 347 790 347 835 z "},"g":{"ha":926,"x_min":58,"x_max":828,"o":"m 622 390 q 622 434 622 390 q 572 531 622 479 q 449 582 522 582 q 322 531 375 582 q 268 390 268 479 q 320 247 268 301 q 447 192 372 192 q 572 246 522 192 q 622 390 622 300 m 651 126 q 406 17 553 17 q 159 116 260 17 q 58 381 58 215 q 162 653 58 547 q 399 760 265 760 q 619 650 532 760 l 619 749 l 828 749 l 828 97 q 793 -81 828 -3 q 700 -203 758 -158 q 428 -294 585 -294 q 258 -267 344 -294 q 106 -190 171 -240 l 186 -33 q 403 -111 289 -111 q 585 -54 518 -111 q 651 126 651 3 z "},"h":{"ha":888,"x_min":99,"x_max":797,"o":"m 307 403 l 307 0 l 99 0 l 99 1031 l 307 1031 l 307 664 q 519 760 401 760 q 717 676 636 760 q 797 454 797 593 l 797 0 l 589 0 l 589 408 q 463 581 589 581 q 353 535 400 581 q 307 403 307 490 z "},"i":{"ha":406,"x_min":81,"x_max":325,"o":"m 307 0 l 99 0 l 99 747 l 307 747 l 307 0 m 116 842 q 98 860 116 842 q 81 929 81 878 q 116 1016 81 981 q 203 1051 151 1051 q 290 1016 254 1051 q 325 929 325 981 q 290 842 325 878 q 203 807 254 807 q 116 842 151 807 z "},"j":{"ha":476,"x_min":-83,"x_max":396,"o":"m 169 -14 l 169 749 l 378 749 l 378 -31 q 303 -224 378 -153 q 122 -294 229 -294 q -83 -206 14 -294 l 13 -51 q 106 -100 54 -100 q 151 -78 133 -100 q 169 -14 169 -57 m 187 842 q 169 860 187 842 q 151 929 151 878 q 187 1016 151 981 q 274 1051 222 1051 q 360 1016 325 1051 q 396 929 396 981 q 360 842 396 878 q 274 807 325 807 q 187 842 222 807 z "},"k":{"ha":826,"x_min":99,"x_max":813,"o":"m 307 0 l 99 0 l 99 1031 l 307 1031 l 307 501 l 539 749 l 801 749 l 517 446 l 813 0 l 565 0 l 375 286 l 307 215 l 307 0 z "},"l":{"ha":406,"x_min":99,"x_max":307,"o":"m 307 0 l 99 0 l 99 1031 l 307 1031 l 307 0 z "},"m":{"ha":1365,"x_min":99,"x_max":1275,"o":"m 785 403 l 785 0 l 575 0 l 575 408 q 548 539 575 497 q 460 581 521 581 q 353 535 400 581 q 307 403 307 490 l 307 0 l 99 0 l 99 747 l 307 747 l 307 663 q 504 760 393 760 q 633 718 575 760 q 719 617 690 676 q 835 722 763 685 q 982 760 908 760 q 1194 681 1114 760 q 1275 454 1275 603 l 1275 0 l 1065 0 l 1065 408 q 939 581 1065 581 q 831 535 876 581 q 785 403 785 490 z "},"n":{"ha":888,"x_min":99,"x_max":797,"o":"m 307 417 l 307 0 l 99 0 l 99 747 l 307 747 l 307 664 q 519 760 401 760 q 717 676 638 760 q 797 454 797 593 l 797 0 l 589 0 l 589 422 q 463 594 589 594 q 353 549 400 594 q 307 417 307 504 z "},"o":{"ha":901,"x_min":56,"x_max":846,"o":"m 265 374 q 265 328 265 374 q 317 224 265 282 q 451 167 369 167 q 584 224 532 167 q 636 374 636 282 q 584 524 636 465 q 451 582 532 582 q 317 524 369 582 q 265 374 265 465 m 846 374 q 846 292 846 374 q 733 100 846 211 q 451 -11 621 -11 q 168 100 281 -11 q 56 374 56 211 q 168 648 56 536 q 451 760 281 760 q 733 648 621 760 q 846 374 846 536 z "},"p":{"ha":925,"x_min":99,"x_max":868,"o":"m 533 760 q 599 760 533 760 q 766 651 664 760 q 868 376 868 542 q 766 100 868 211 q 527 -11 664 -11 q 307 99 390 -11 l 307 -269 l 99 -269 l 99 747 l 307 747 l 307 664 q 533 760 403 760 m 304 373 q 304 327 304 373 q 355 224 304 282 q 478 167 406 167 q 604 224 550 167 q 658 372 658 282 q 606 524 658 463 q 479 585 553 585 q 355 524 406 585 q 304 373 304 464 z "},"q":{"ha":925,"x_min":57,"x_max":826,"o":"m 414 -11 q 164 97 271 -11 q 57 373 57 204 q 161 651 57 542 q 393 760 265 760 q 617 664 521 760 l 617 747 l 826 747 l 826 -269 l 617 -269 l 617 60 q 414 -11 528 -11 m 267 373 q 267 327 267 373 q 321 224 267 282 q 447 167 375 167 q 569 224 519 167 q 619 373 619 282 q 569 524 619 464 q 446 585 519 585 q 319 524 372 585 q 267 373 267 464 z "},"r":{"ha":571,"x_min":99,"x_max":532,"o":"m 492 564 q 353 498 399 564 q 307 324 307 432 l 307 0 l 99 0 l 99 747 l 307 747 l 307 649 q 408 726 347 694 q 531 760 468 758 l 532 564 l 492 564 z "},"s":{"ha":722,"x_min":38,"x_max":661,"o":"m 661 233 q 661 177 661 233 q 580 56 661 122 q 374 -11 499 -11 q 200 19 290 -11 q 38 107 110 49 l 129 238 q 378 147 246 147 q 442 163 418 147 q 465 206 465 179 q 433 254 465 232 q 338 296 400 276 q 244 329 276 315 q 169 369 211 343 q 85 526 85 422 q 168 694 85 629 q 383 760 251 760 q 647 671 515 760 l 569 532 q 376 599 472 599 q 279 546 279 599 q 310 500 279 517 q 411 461 340 483 q 512 427 482 439 q 583 390 542 415 q 661 233 661 343 z "},"t":{"ha":611,"x_min":50,"x_max":599,"o":"m 347 597 l 347 263 q 369 195 347 219 q 422 171 392 171 q 521 224 481 171 l 599 78 q 394 -11 501 -11 q 212 60 286 -11 q 138 253 138 131 l 138 597 l 50 597 l 50 747 l 138 747 l 138 971 l 347 971 l 347 747 l 528 747 l 528 597 l 347 597 z "},"u":{"ha":889,"x_min":90,"x_max":790,"o":"m 581 344 l 581 747 l 790 747 l 790 0 l 581 0 l 581 99 q 380 -11 503 -11 q 174 66 257 -11 q 90 294 90 143 l 90 747 l 300 747 l 300 340 q 426 168 300 168 q 535 213 489 168 q 581 344 581 258 z "},"v":{"ha":814,"x_min":4,"x_max":810,"o":"m 300 0 l 4 749 l 221 749 l 407 278 l 593 749 l 810 749 l 514 0 l 300 0 z "},"w":{"ha":1253,"x_min":18,"x_max":1235,"o":"m 488 0 l 272 0 l 18 747 l 233 747 l 379 296 l 525 747 l 726 747 l 872 296 l 1018 747 l 1235 747 l 981 0 l 764 0 l 626 407 l 488 0 z "},"x":{"ha":813,"x_min":18,"x_max":794,"o":"m 281 747 l 408 547 l 540 747 l 785 747 l 528 382 l 794 0 l 546 0 l 400 206 l 258 0 l 18 0 l 279 381 l 32 747 l 281 747 z "},"y":{"ha":819,"x_min":6,"x_max":814,"o":"m 228 -294 q 21 -206 118 -294 l 115 -51 q 224 -103 168 -103 q 274 -74 253 -103 q 294 -14 294 -46 q 6 747 294 18 l 228 747 l 410 282 l 592 747 l 814 747 l 467 -133 q 372 -252 436 -210 q 228 -294 307 -294 z "},"z":{"ha":768,"x_min":58,"x_max":708,"o":"m 85 575 l 85 747 l 688 747 l 688 585 l 325 174 l 708 174 l 708 0 l 58 0 l 58 172 l 411 575 l 85 575 z "},"{":{"ha":500,"x_min":51,"x_max":432,"o":"m 432 882 l 403 883 q 342 829 342 883 l 342 539 q 290 431 342 465 q 342 324 342 397 l 342 21 q 432 -25 342 -25 l 432 -194 l 356 -194 q 147 4 147 -194 l 147 289 q 115 346 147 346 l 51 346 l 51 515 l 115 515 q 147 574 147 515 l 147 853 q 356 1051 147 1051 l 432 1051 l 432 882 z "},"|":{"ha":383,"x_min":106,"x_max":278,"o":"m 106 -203 l 106 1079 l 278 1079 l 278 -203 l 106 -203 z "},"}":{"ha":500,"x_min":68,"x_max":449,"o":"m 68 -25 l 97 -26 q 158 28 158 -26 l 158 318 q 210 426 158 392 q 158 533 158 460 l 158 836 q 68 882 158 882 l 68 1051 l 144 1051 q 353 853 353 1051 l 353 568 q 385 511 353 511 l 449 511 l 449 342 l 385 342 q 353 283 353 342 l 353 4 q 144 -194 353 -194 l 68 -194 l 68 -25 z "},"~":{"ha":743,"x_min":35,"x_max":704,"o":"m 496 575 q 542 635 542 575 q 538 665 542 649 l 704 621 q 643 453 696 506 q 511 401 590 401 q 376 447 464 401 q 261 492 288 492 q 217 465 235 492 q 200 390 199 439 l 35 440 q 100 608 44 551 q 243 664 156 664 q 379 619 293 664 q 496 575 465 575 z "},"¡":{"ha":442,"x_min":99,"x_max":344,"o":"m 344 0 l 99 0 l 99 183 l 139 683 l 303 683 l 344 183 l 344 0 m 134 784 q 116 802 134 784 q 99 871 99 819 q 134 958 99 922 q 221 993 169 993 q 308 958 272 993 q 343 871 343 922 q 308 784 343 819 q 221 749 272 749 q 134 784 169 749 z "},"¢":{"ha":831,"x_min":64,"x_max":776,"o":"m 522 -162 l 389 -162 l 389 -6 q 158 118 251 17 q 64 372 64 219 q 157 628 64 525 q 389 753 250 731 l 389 913 l 522 913 l 522 754 q 768 628 664 733 l 660 486 q 522 569 603 551 l 522 182 q 591 217 558 193 q 639 258 624 240 l 653 278 l 776 139 q 522 -4 661 18 l 522 -162 m 389 561 q 301 492 335 540 q 268 374 268 444 q 301 256 268 304 q 389 188 335 207 l 389 561 z "},"£":{"ha":872,"x_min":81,"x_max":803,"o":"m 410 706 l 410 554 l 626 554 l 626 379 l 410 379 l 410 185 l 796 185 l 796 0 l 86 0 l 86 185 l 192 185 l 192 379 l 81 379 l 81 554 l 192 554 l 192 697 q 280 948 192 869 q 511 1026 368 1026 q 803 851 703 1026 l 649 726 q 592 807 626 778 q 515 836 557 836 q 442 805 474 836 q 410 706 410 774 z "},"¤":{"ha":1057,"x_min":78,"x_max":979,"o":"m 197 226 q 133 440 133 319 q 194 653 133 560 l 78 771 l 208 903 l 332 779 q 529 828 422 828 q 725 778 636 828 l 849 903 l 979 771 l 863 651 q 924 440 924 557 q 858 226 924 322 l 979 104 l 850 -28 l 721 103 q 526 56 629 56 q 336 103 422 56 l 207 -28 l 78 104 l 197 226 m 400 298 q 425 270 400 298 q 528 242 450 242 q 656 298 606 242 q 706 442 706 354 q 656 585 706 529 q 528 640 606 640 q 400 585 450 640 q 350 442 350 529 q 400 298 350 354 z "},"¥":{"ha":1029,"x_min":47,"x_max":985,"o":"m 150 311 l 397 311 l 397 388 l 150 388 l 150 521 l 308 521 l 47 969 l 283 969 l 513 574 l 750 969 l 985 969 l 715 521 l 868 521 l 868 388 l 624 388 l 624 311 l 868 311 l 868 178 l 624 178 l 624 0 l 397 0 l 397 178 l 150 178 l 150 311 z "},"¦":{"ha":408,"x_min":111,"x_max":297,"o":"m 111 568 l 111 1047 l 297 1047 l 297 568 l 111 568 m 111 -32 l 111 446 l 297 446 l 297 -32 l 111 -32 z "},"§":{"ha":864,"x_min":69,"x_max":803,"o":"m 425 857 q 355 836 381 857 q 329 780 329 815 q 362 723 329 744 q 492 676 394 701 q 731 580 658 636 q 803 418 803 524 q 661 219 803 278 q 750 59 750 160 q 665 -112 750 -42 q 439 -183 581 -183 q 74 -32 240 -183 l 190 108 q 443 -14 336 -14 q 550 53 550 -14 q 511 110 550 86 q 348 169 472 133 q 147 265 224 206 q 69 436 69 324 q 103 547 69 494 q 201 626 138 599 q 126 769 126 679 q 211 955 126 883 q 428 1026 296 1026 q 592 1001 519 1026 q 743 917 664 975 l 639 768 q 425 857 522 857 m 254 442 q 322 355 254 389 q 493 321 389 321 q 582 344 546 321 q 618 404 618 367 q 535 489 618 461 q 386 517 453 517 q 254 442 254 517 z "},"¨":{"ha":738,"x_min":132,"x_max":606,"o":"m 162 887 q 147 902 162 887 q 132 960 132 917 q 162 1033 132 1003 q 235 1063 192 1063 q 308 1033 278 1063 q 338 960 338 1003 q 308 887 338 917 q 235 857 278 857 q 162 887 192 857 m 430 887 q 415 902 430 887 q 400 960 400 917 q 430 1033 400 1003 q 503 1063 460 1063 q 576 1033 546 1063 q 606 960 606 1003 q 576 887 606 917 q 503 857 546 857 q 430 887 460 857 z "},"©":{"ha":1144,"x_min":71,"x_max":1074,"o":"m 927 840 q 1000 767 927 840 q 1074 486 1074 693 q 927 131 1074 279 q 571 -17 781 -17 q 216 130 361 -17 q 71 483 71 276 q 217 839 71 690 q 572 988 364 988 q 927 840 781 988 m 854 204 q 913 263 854 204 q 971 486 971 322 q 854 767 971 650 q 573 883 738 883 q 291 765 408 883 q 174 483 174 647 q 289 203 174 319 q 571 86 404 86 q 854 204 738 86 m 578 203 q 376 282 461 203 q 292 489 292 361 q 379 697 292 617 q 594 776 467 776 q 817 678 722 776 l 733 574 q 593 640 678 640 q 491 601 533 640 q 449 491 449 561 q 492 380 449 421 q 597 339 536 339 q 736 419 688 339 l 822 315 q 578 203 715 203 z "},"ª":{"ha":497,"x_min":71,"x_max":401,"o":"m 401 636 l 299 636 l 299 679 q 208 632 268 632 q 110 664 149 632 q 71 749 71 696 q 112 828 71 801 q 222 856 153 856 l 293 856 l 293 860 q 240 919 293 919 q 154 900 199 919 l 140 893 l 107 954 q 242 993 167 993 q 401 861 401 993 l 401 636 m 292 769 l 292 790 l 231 790 q 181 749 181 790 q 193 718 181 729 q 230 707 206 707 q 273 724 254 707 q 292 769 292 740 z "},"«":{"ha":839,"x_min":67,"x_max":758,"o":"m 446 596 l 282 340 l 446 83 l 236 83 l 67 340 l 236 596 l 446 596 m 758 596 l 594 340 l 758 83 l 549 83 l 379 340 l 549 596 l 758 596 z "},"¬":{"ha":1135,"x_min":88,"x_max":1017,"o":"m 88 618 l 1017 618 l 1017 122 l 861 122 l 861 454 l 88 454 l 88 618 z "},"®":{"ha":1144,"x_min":71,"x_max":1074,"o":"m 927 840 q 1000 767 927 840 q 1074 486 1074 693 q 927 131 1074 279 q 571 -17 781 -17 q 216 130 361 -17 q 71 483 71 276 q 217 839 71 690 q 572 988 364 988 q 927 840 781 988 m 860 210 q 971 488 971 325 q 854 767 971 650 q 573 883 738 883 q 291 765 408 883 q 174 483 174 647 q 289 203 174 319 q 572 86 404 86 q 857 207 740 86 l 696 207 l 575 381 l 514 381 l 514 207 l 361 207 l 361 771 l 585 771 q 775 725 718 771 q 832 578 832 679 q 719 406 832 454 l 860 210 m 588 506 q 661 523 642 506 q 681 578 681 540 q 660 631 681 617 q 590 646 640 646 l 514 646 l 514 506 l 588 506 z "},"¯":{"ha":614,"x_min":76,"x_max":539,"o":"m 539 954 l 539 793 l 76 793 l 76 954 l 539 954 z "},"°":{"ha":594,"x_min":65,"x_max":529,"o":"m 133 925 q 167 958 133 925 q 297 992 201 992 q 461 925 393 992 q 529 765 529 858 q 461 605 529 671 q 297 539 393 539 q 133 605 201 539 q 65 765 65 671 q 133 925 65 858 m 197 765 q 197 741 197 765 q 226 685 197 718 q 297 653 256 653 q 367 685 339 653 q 396 764 396 717 q 367 843 396 811 q 297 875 339 875 q 226 843 256 875 q 197 765 197 811 z "},"±":{"ha":807,"x_min":67,"x_max":740,"o":"m 307 906 l 499 906 l 499 706 l 740 706 l 740 543 l 499 543 l 499 350 l 307 350 l 307 543 l 67 543 l 67 706 l 307 706 l 307 906 m 67 281 l 740 281 l 740 124 l 67 124 l 67 281 z "},"²":{"ha":610,"x_min":82,"x_max":521,"o":"m 264 675 q 333 753 313 725 q 354 807 354 782 q 339 849 354 832 q 300 865 324 865 q 203 783 254 865 l 82 856 q 177 958 126 924 q 306 993 228 993 q 444 944 385 993 q 504 810 504 894 q 481 724 504 765 q 394 617 457 682 l 308 526 l 521 526 l 521 393 l 94 393 l 94 500 l 264 675 z "},"³":{"ha":606,"x_min":71,"x_max":510,"o":"m 106 843 l 106 971 l 483 971 l 483 869 l 374 743 q 474 678 439 726 q 510 571 510 631 q 445 424 510 478 q 280 369 381 369 q 71 444 179 369 l 135 560 q 283 500 214 500 q 338 517 317 500 q 360 567 360 533 q 330 617 360 600 q 254 635 300 635 q 174 618 208 635 l 174 722 l 275 843 l 106 843 z "},"´":{"ha":531,"x_min":69,"x_max":461,"o":"m 268 1071 l 69 1071 l 246 1317 l 461 1226 l 268 1071 z "},"µ":{"ha":899,"x_min":110,"x_max":810,"o":"m 110 -257 l 110 747 l 319 747 l 319 340 q 446 168 319 168 q 554 213 508 168 q 600 344 600 258 l 600 747 l 810 747 l 810 0 l 600 0 l 600 63 q 403 -11 518 -11 q 319 -1 354 -11 l 319 -257 l 110 -257 z "},"¶":{"ha":989,"x_min":47,"x_max":863,"o":"m 47 761 q 131 967 47 883 q 388 1050 215 1050 l 863 1050 l 863 -146 l 678 -146 l 678 878 l 542 878 l 542 -146 l 361 -146 l 361 483 l 333 483 q 83 617 153 483 q 47 761 47 685 z "},"·":{"ha":414,"x_min":85,"x_max":329,"o":"m 120 355 q 102 373 120 355 q 85 442 85 390 q 120 528 85 493 q 207 564 156 564 q 294 528 258 564 q 329 442 329 493 q 294 355 329 390 q 207 319 258 319 q 120 355 156 319 z "},"¸":{"ha":390,"x_min":19,"x_max":339,"o":"m 339 -176 q 290 -281 339 -236 q 165 -325 240 -325 q 19 -281 90 -325 l 72 -161 q 126 -187 103 -187 q 163 -175 150 -187 q 176 -144 176 -162 q 160 -110 176 -125 q 120 -96 143 -96 q 71 -108 97 -96 l 128 0 l 288 0 l 249 -71 q 339 -176 339 -101 z "},"¹":{"ha":414,"x_min":56,"x_max":313,"o":"m 56 971 l 313 971 l 313 383 l 164 383 l 164 844 l 56 844 l 56 971 z "},"º":{"ha":546,"x_min":68,"x_max":478,"o":"m 201 798 q 201 779 201 798 q 222 736 201 760 q 273 713 242 713 q 324 736 304 713 q 344 798 344 760 q 324 860 344 836 q 273 885 304 885 q 222 860 242 885 q 201 798 201 836 m 478 797 q 478 756 478 797 q 419 659 478 715 q 273 603 361 603 q 126 660 185 603 q 68 798 68 717 q 126 936 68 879 q 273 993 185 993 q 419 936 361 993 q 478 797 478 879 z "},"»":{"ha":839,"x_min":81,"x_max":772,"o":"m 557 340 l 393 596 l 603 596 l 772 340 l 603 83 l 393 83 l 557 340 m 244 340 l 81 596 l 290 596 l 460 340 l 290 83 l 81 83 l 244 340 z "},"¼":{"ha":1188,"x_min":50,"x_max":1136,"o":"m 781 1047 l 940 1047 l 435 -11 l 275 -11 l 781 1047 m 50 969 l 306 969 l 306 383 l 157 383 l 157 843 l 50 843 l 50 969 m 946 364 l 1072 364 l 1072 247 l 1136 247 l 1136 136 l 1072 136 l 1072 0 l 946 0 l 946 136 l 697 136 l 697 243 l 901 586 l 1054 586 l 851 247 l 946 247 l 946 364 z "},"½":{"ha":1219,"x_min":50,"x_max":1160,"o":"m 765 1047 l 926 1047 l 421 -11 l 260 -11 l 765 1047 m 50 971 l 306 971 l 306 383 l 157 383 l 157 844 l 50 844 l 50 971 m 903 282 q 972 360 951 332 q 993 414 993 389 q 978 456 993 439 q 939 472 963 472 q 842 390 893 472 l 721 463 q 816 565 765 531 q 945 600 867 600 q 1083 551 1024 600 q 1143 417 1143 501 q 1119 331 1143 372 q 1033 224 1096 289 l 947 133 l 1160 133 l 1160 0 l 733 0 l 733 107 l 903 282 z "},"¾":{"ha":1251,"x_min":54,"x_max":1201,"o":"m 843 1047 l 1003 1047 l 497 -11 l 338 -11 l 843 1047 m 89 843 l 89 971 l 467 971 l 467 869 l 357 743 q 458 678 422 726 q 493 571 493 631 q 428 424 493 478 q 263 369 364 369 q 54 444 163 369 l 118 560 q 267 500 197 500 q 322 517 300 500 q 343 567 343 533 q 313 617 343 600 q 238 635 283 635 q 157 618 192 635 l 157 722 l 258 843 l 89 843 m 1011 364 l 1138 364 l 1138 247 l 1201 247 l 1201 136 l 1138 136 l 1138 0 l 1011 0 l 1011 136 l 763 136 l 763 243 l 967 586 l 1119 586 l 917 247 l 1011 247 l 1011 364 z "},"¿":{"ha":731,"x_min":72,"x_max":682,"o":"m 271 693 l 482 693 l 482 589 q 467 503 482 532 q 406 426 453 475 l 311 329 q 290 265 290 304 q 313 199 290 225 q 371 172 335 172 q 431 203 407 172 q 461 286 456 235 l 682 286 q 581 68 667 147 q 365 -11 494 -11 q 153 60 235 -11 q 72 256 72 131 q 86 338 72 311 q 106 377 100 365 q 131 413 111 389 q 158 442 151 436 q 222 506 192 476 q 261 553 251 535 q 271 610 271 572 l 271 693 m 460 958 q 478 940 460 958 q 496 871 496 922 q 460 784 496 819 q 374 749 425 749 q 287 784 322 749 q 251 871 251 819 q 287 958 251 922 q 374 993 322 993 q 460 958 425 993 z "},"À":{"ha":1035,"x_min":-7,"x_max":1042,"o":"m 811 0 l 721 210 l 314 210 l 224 0 l -7 0 l 413 971 l 622 971 l 1042 0 l 811 0 m 518 682 l 396 400 l 639 400 l 518 682 m 622 1068 l 424 1068 l 231 1224 l 444 1315 l 622 1068 z "},"Á":{"ha":1035,"x_min":-7,"x_max":1042,"o":"m 811 0 l 721 210 l 314 210 l 224 0 l -7 0 l 413 971 l 622 971 l 1042 0 l 811 0 m 518 682 l 396 400 l 639 400 l 518 682 m 610 1071 l 411 1071 l 588 1317 l 803 1226 l 610 1071 z "},"Â":{"ha":1035,"x_min":-7,"x_max":1042,"o":"m 811 0 l 721 210 l 314 210 l 224 0 l -7 0 l 413 971 l 622 971 l 1042 0 l 811 0 m 518 682 l 396 400 l 639 400 l 518 682 m 393 1068 l 222 1068 l 379 1288 l 639 1288 l 796 1068 l 625 1068 l 508 1181 l 393 1068 z "},"Ã":{"ha":1035,"x_min":-7,"x_max":1042,"o":"m 811 0 l 721 210 l 314 210 l 224 0 l -7 0 l 413 971 l 622 971 l 1042 0 l 811 0 m 518 682 l 396 400 l 639 400 l 518 682 m 429 1140 q 388 1068 386 1140 l 240 1068 q 285 1232 240 1172 q 401 1292 331 1292 q 509 1253 446 1292 q 586 1215 572 1215 q 628 1288 629 1215 l 775 1288 q 730 1124 775 1183 q 614 1064 685 1064 q 506 1102 571 1064 q 429 1140 440 1140 z "},"Ä":{"ha":1035,"x_min":-7,"x_max":1042,"o":"m 811 0 l 721 210 l 314 210 l 224 0 l -7 0 l 413 971 l 622 971 l 1042 0 l 811 0 m 518 682 l 396 400 l 639 400 l 518 682 m 315 1103 q 300 1118 315 1103 q 285 1176 285 1133 q 315 1249 285 1219 q 388 1279 344 1279 q 460 1249 431 1279 q 490 1176 490 1219 q 460 1103 490 1133 q 388 1074 431 1074 q 315 1103 344 1074 m 583 1103 q 568 1118 583 1103 q 553 1176 553 1133 q 583 1249 553 1219 q 656 1279 613 1279 q 728 1249 699 1279 q 758 1176 758 1219 q 728 1103 758 1133 q 656 1074 699 1074 q 583 1103 613 1074 z "},"Å":{"ha":1035,"x_min":-7,"x_max":1042,"o":"m 411 969 q 369 1074 369 1014 q 413 1178 369 1135 q 518 1222 457 1222 q 623 1178 579 1222 q 667 1074 667 1135 q 622 968 667 1013 l 1042 0 l 811 0 l 721 210 l 314 210 l 224 0 l -7 0 l 411 969 m 518 682 l 396 400 l 639 400 l 518 682 m 484 1108 q 477 1100 484 1108 q 469 1074 469 1093 q 484 1040 469 1054 q 518 1025 499 1025 q 552 1040 538 1025 q 567 1074 567 1054 q 552 1108 567 1093 q 518 1122 538 1122 q 484 1108 499 1122 z "},"Æ":{"ha":1421,"x_min":-22,"x_max":1349,"o":"m 1333 971 l 1333 781 l 849 781 l 849 571 l 1283 571 l 1283 389 l 849 389 l 849 190 l 1349 190 l 1349 0 l 618 0 l 618 210 l 343 210 l 233 0 l -22 0 l 476 971 l 1333 971 m 618 406 l 618 747 l 442 406 l 618 406 z "},"Ç":{"ha":1017,"x_min":61,"x_max":971,"o":"m 565 192 q 826 318 725 192 l 965 175 q 629 -7 825 17 l 593 -74 q 683 -179 683 -104 q 634 -283 683 -239 q 510 -328 585 -328 q 364 -283 435 -328 l 417 -164 q 471 -190 447 -190 q 508 -178 494 -190 q 521 -147 521 -165 q 504 -113 521 -128 q 465 -99 488 -99 q 415 -111 442 -99 l 472 -3 q 176 163 292 28 q 61 501 61 299 q 209 849 61 704 q 571 993 357 993 q 971 811 810 993 l 836 658 q 581 786 733 786 q 372 706 458 786 q 285 491 285 626 q 367 274 285 356 q 565 192 449 192 z "},"È":{"ha":908,"x_min":119,"x_max":835,"o":"m 819 971 l 819 778 l 336 778 l 336 578 l 771 578 l 771 393 l 336 393 l 336 192 l 835 192 l 835 0 l 119 0 l 119 971 l 819 971 m 561 1068 l 363 1068 l 169 1224 l 383 1315 l 561 1068 z "},"É":{"ha":908,"x_min":119,"x_max":835,"o":"m 819 971 l 819 778 l 336 778 l 336 578 l 771 578 l 771 393 l 336 393 l 336 192 l 835 192 l 835 0 l 119 0 l 119 971 l 819 971 m 549 1071 l 350 1071 l 526 1317 l 742 1226 l 549 1071 z "},"Ê":{"ha":908,"x_min":119,"x_max":835,"o":"m 819 971 l 819 778 l 336 778 l 336 578 l 771 578 l 771 393 l 336 393 l 336 192 l 835 192 l 835 0 l 119 0 l 119 971 l 819 971 m 332 1068 l 161 1068 l 318 1288 l 578 1288 l 735 1068 l 564 1068 l 447 1181 l 332 1068 z "},"Ë":{"ha":908,"x_min":119,"x_max":835,"o":"m 819 971 l 819 778 l 336 778 l 336 578 l 771 578 l 771 393 l 336 393 l 336 192 l 835 192 l 835 0 l 119 0 l 119 971 l 819 971 m 266 1103 q 251 1118 266 1103 q 236 1176 236 1133 q 266 1249 236 1219 q 339 1279 296 1279 q 412 1249 382 1279 q 442 1176 442 1219 q 412 1103 442 1133 q 339 1074 382 1074 q 266 1103 296 1074 m 534 1103 q 519 1118 534 1103 q 504 1176 504 1133 q 534 1249 504 1219 q 607 1279 564 1279 q 680 1249 650 1279 q 710 1176 710 1219 q 680 1103 710 1133 q 607 1074 650 1074 q 534 1103 564 1074 z "},"Ì":{"ha":456,"x_min":-51,"x_max":340,"o":"m 119 971 l 336 971 l 336 0 l 119 0 l 119 971 m 340 1068 l 142 1068 l -51 1224 l 163 1315 l 340 1068 z "},"Í":{"ha":456,"x_min":119,"x_max":521,"o":"m 119 971 l 336 971 l 336 0 l 119 0 l 119 971 m 328 1071 l 129 1071 l 306 1317 l 521 1226 l 328 1071 z "},"Î":{"ha":456,"x_min":-58,"x_max":515,"o":"m 119 971 l 336 971 l 336 0 l 119 0 l 119 971 m 113 1069 l -58 1069 l 99 1289 l 358 1289 l 515 1069 l 344 1069 l 228 1182 l 113 1069 z "},"Ï":{"ha":456,"x_min":-10,"x_max":464,"o":"m 119 971 l 336 971 l 336 0 l 119 0 l 119 971 m 20 1103 q 5 1118 20 1103 q -10 1176 -10 1133 q 20 1249 -10 1219 q 93 1279 50 1279 q 166 1249 136 1279 q 196 1176 196 1219 q 166 1103 196 1133 q 93 1074 136 1074 q 20 1103 50 1074 m 288 1103 q 273 1118 288 1103 q 258 1176 258 1133 q 288 1249 258 1219 q 361 1279 318 1279 q 434 1249 404 1279 q 464 1176 464 1219 q 434 1103 464 1133 q 361 1074 404 1074 q 288 1103 318 1074 z "},"Ð":{"ha":1089,"x_min":36,"x_max":1019,"o":"m 36 389 l 36 574 l 139 574 l 139 971 l 482 971 q 881 844 742 971 q 1019 490 1019 717 q 884 132 1019 264 q 471 0 749 0 l 139 0 l 139 389 l 36 389 m 493 192 q 722 267 642 192 q 801 485 801 342 q 722 705 801 628 q 476 782 642 782 l 356 782 l 356 574 l 681 574 l 681 389 l 356 389 l 356 192 l 493 192 z "},"Ñ":{"ha":1135,"x_min":119,"x_max":1015,"o":"m 799 971 l 1015 971 l 1015 0 l 799 0 l 336 608 l 336 0 l 119 0 l 119 971 l 322 971 l 799 346 l 799 971 m 486 1139 q 444 1067 443 1139 l 297 1067 q 342 1231 297 1171 q 458 1290 388 1290 q 566 1252 503 1290 q 643 1214 629 1214 q 685 1286 686 1214 l 832 1286 q 787 1122 832 1182 q 671 1063 742 1063 q 563 1101 628 1063 q 486 1139 497 1139 z "},"Ò":{"ha":1147,"x_min":64,"x_max":1083,"o":"m 863 491 q 863 556 863 491 q 779 713 863 621 q 574 804 696 804 q 369 713 453 804 q 286 491 286 621 q 369 270 286 361 q 574 179 453 179 q 779 270 696 179 q 863 491 863 361 m 936 134 q 863 62 936 134 q 574 -10 789 -10 q 211 134 358 -10 q 64 492 64 278 q 211 849 64 706 q 574 993 358 993 q 936 849 789 993 q 1083 492 1083 706 q 936 134 1083 278 m 686 1068 l 488 1068 l 294 1224 l 508 1315 l 686 1068 z "},"Ó":{"ha":1147,"x_min":64,"x_max":1083,"o":"m 863 491 q 863 556 863 491 q 779 713 863 621 q 574 804 696 804 q 369 713 453 804 q 286 491 286 621 q 369 270 286 361 q 574 179 453 179 q 779 270 696 179 q 863 491 863 361 m 936 134 q 863 62 936 134 q 574 -10 789 -10 q 211 134 358 -10 q 64 492 64 278 q 211 849 64 706 q 574 993 358 993 q 936 849 789 993 q 1083 492 1083 706 q 936 134 1083 278 m 674 1071 l 475 1071 l 651 1317 l 867 1226 l 674 1071 z "},"Ô":{"ha":1147,"x_min":64,"x_max":1083,"o":"m 863 491 q 863 556 863 491 q 779 713 863 621 q 574 804 696 804 q 369 713 453 804 q 286 491 286 621 q 369 270 286 361 q 574 179 453 179 q 779 270 696 179 q 863 491 863 361 m 936 134 q 863 62 936 134 q 574 -10 789 -10 q 211 134 358 -10 q 64 492 64 278 q 211 849 64 706 q 574 993 358 993 q 936 849 789 993 q 1083 492 1083 706 q 936 134 1083 278 m 457 1068 l 286 1068 l 443 1288 l 703 1288 l 860 1068 l 689 1068 l 572 1181 l 457 1068 z "},"Õ":{"ha":1147,"x_min":64,"x_max":1083,"o":"m 863 491 q 863 556 863 491 q 779 713 863 621 q 574 804 696 804 q 369 713 453 804 q 286 491 286 621 q 369 270 286 361 q 574 179 453 179 q 779 270 696 179 q 863 491 863 361 m 936 134 q 863 62 936 134 q 574 -10 789 -10 q 211 134 358 -10 q 64 492 64 278 q 211 849 64 706 q 574 993 358 993 q 936 849 789 993 q 1083 492 1083 706 q 936 134 1083 278 m 493 1139 q 451 1067 450 1139 l 304 1067 q 349 1231 304 1171 q 465 1290 394 1290 q 573 1252 510 1290 q 650 1214 636 1214 q 692 1286 693 1214 l 839 1286 q 794 1122 839 1182 q 678 1063 749 1063 q 569 1101 635 1063 q 493 1139 504 1139 z "},"Ö":{"ha":1147,"x_min":64,"x_max":1083,"o":"m 863 491 q 863 556 863 491 q 779 713 863 621 q 574 804 696 804 q 369 713 453 804 q 286 491 286 621 q 369 270 286 361 q 574 179 453 179 q 779 270 696 179 q 863 491 863 361 m 936 134 q 863 62 936 134 q 574 -10 789 -10 q 211 134 358 -10 q 64 492 64 278 q 211 849 64 706 q 574 993 358 993 q 936 849 789 993 q 1083 492 1083 706 q 936 134 1083 278 m 365 1103 q 350 1118 365 1103 q 335 1176 335 1133 q 365 1249 335 1219 q 438 1279 394 1279 q 510 1249 481 1279 q 540 1176 540 1219 q 510 1103 540 1133 q 438 1074 481 1074 q 365 1103 394 1074 m 633 1103 q 618 1118 633 1103 q 603 1176 603 1133 q 633 1249 603 1219 q 706 1279 663 1279 q 778 1249 749 1279 q 808 1176 808 1219 q 778 1103 808 1133 q 706 1074 749 1074 q 633 1103 663 1074 z "},"×":{"ha":818,"x_min":67,"x_max":751,"o":"m 410 626 l 631 853 l 750 729 l 532 506 l 751 279 l 632 156 l 410 382 l 189 156 l 67 279 l 289 506 l 68 729 l 190 853 l 410 626 z "},"Ø":{"ha":1147,"x_min":64,"x_max":1083,"o":"m 1083 492 q 936 134 1083 278 q 574 -10 789 -10 q 464 1 519 -10 l 392 -156 l 196 -156 l 297 67 q 126 245 189 133 q 64 492 64 357 q 211 849 64 706 q 574 993 358 993 q 713 975 640 993 l 778 1118 l 975 1118 l 875 900 q 1028 725 972 832 q 1083 492 1083 618 m 574 804 q 369 713 453 804 q 286 483 286 621 q 383 256 286 346 l 632 797 q 574 804 600 804 m 574 179 q 779 270 696 179 q 863 488 863 361 q 785 706 863 614 l 546 181 q 574 179 554 179 z "},"Ù":{"ha":1043,"x_min":106,"x_max":938,"o":"m 376 251 q 403 217 376 251 q 522 183 431 183 q 667 251 614 183 q 721 435 721 318 l 721 971 l 938 971 l 938 428 q 821 103 938 217 q 522 -10 704 -10 q 223 104 340 -10 q 106 428 106 218 l 106 971 l 322 971 l 322 435 q 376 251 322 318 m 632 1068 l 433 1068 l 240 1224 l 454 1315 l 632 1068 z "},"Ú":{"ha":1043,"x_min":106,"x_max":938,"o":"m 376 251 q 403 217 376 251 q 522 183 431 183 q 667 251 614 183 q 721 435 721 318 l 721 971 l 938 971 l 938 428 q 821 103 938 217 q 522 -10 704 -10 q 223 104 340 -10 q 106 428 106 218 l 106 971 l 322 971 l 322 435 q 376 251 322 318 m 621 1071 l 422 1071 l 599 1317 l 814 1226 l 621 1071 z "},"Û":{"ha":1043,"x_min":106,"x_max":938,"o":"m 376 251 q 403 217 376 251 q 522 183 431 183 q 667 251 614 183 q 721 435 721 318 l 721 971 l 938 971 l 938 428 q 821 103 938 217 q 522 -10 704 -10 q 223 104 340 -10 q 106 428 106 218 l 106 971 l 322 971 l 322 435 q 376 251 322 318 m 404 1068 l 233 1068 l 390 1288 l 650 1288 l 807 1068 l 636 1068 l 519 1181 l 404 1068 z "},"Ü":{"ha":1043,"x_min":106,"x_max":938,"o":"m 376 251 q 403 217 376 251 q 522 183 431 183 q 667 251 614 183 q 721 435 721 318 l 721 971 l 938 971 l 938 428 q 821 103 938 217 q 522 -10 704 -10 q 223 104 340 -10 q 106 428 106 218 l 106 971 l 322 971 l 322 435 q 376 251 322 318 m 313 1103 q 298 1118 313 1103 q 283 1176 283 1133 q 313 1249 283 1219 q 386 1279 343 1279 q 459 1249 429 1279 q 489 1176 489 1219 q 459 1103 489 1133 q 386 1074 429 1074 q 313 1103 343 1074 m 581 1103 q 566 1118 581 1103 q 551 1176 551 1133 q 581 1249 551 1219 q 654 1279 611 1279 q 727 1249 697 1279 q 757 1176 757 1219 q 727 1103 757 1133 q 654 1074 697 1074 q 581 1103 611 1074 z "},"Ý":{"ha":858,"x_min":-15,"x_max":874,"o":"m 538 0 l 321 0 l 321 383 l -15 971 l 219 971 l 429 610 l 639 971 l 874 971 l 538 383 l 538 0 m 501 1071 l 303 1071 l 479 1317 l 694 1226 l 501 1071 z "},"Þ":{"ha":951,"x_min":119,"x_max":890,"o":"m 890 511 q 780 238 890 322 q 451 154 669 154 l 336 154 l 336 0 l 119 0 l 119 971 l 336 971 l 336 854 l 449 854 q 890 511 890 854 m 468 342 q 624 387 579 342 q 668 515 668 432 q 613 632 668 597 q 446 667 557 667 l 336 667 l 336 342 l 468 342 z "},"ß":{"ha":899,"x_min":97,"x_max":840,"o":"m 388 590 q 526 647 481 604 q 571 741 571 689 q 544 830 571 793 q 461 867 518 867 q 347 810 381 867 q 314 643 314 753 l 314 0 l 97 0 l 97 625 q 125 839 97 761 q 163 917 136 874 q 225 986 189 960 q 446 1051 308 1051 q 587 1031 525 1051 q 685 981 649 1011 q 744 911 721 951 q 783 760 783 840 q 676 543 783 631 q 799 448 758 517 q 840 294 840 379 q 747 80 840 160 q 478 0 653 0 l 392 0 l 392 175 l 453 175 q 624 294 624 175 q 464 426 624 426 q 388 422 435 426 l 388 590 z "},"à":{"ha":825,"x_min":58,"x_max":733,"o":"m 733 0 l 538 0 l 538 90 q 338 -11 457 -11 q 139 58 219 -11 q 58 241 58 126 q 142 413 58 356 q 369 469 225 469 l 525 469 l 525 474 q 399 593 525 593 q 284 572 344 593 q 182 518 224 550 l 89 653 q 425 760 236 760 q 647 692 561 760 q 733 476 733 624 l 733 0 m 524 285 l 524 321 l 393 321 q 268 243 268 321 q 298 181 268 203 q 383 160 328 160 q 481 194 439 160 q 524 285 524 228 m 572 849 l 374 849 l 181 1004 l 394 1096 l 572 849 z "},"á":{"ha":825,"x_min":58,"x_max":733,"o":"m 733 0 l 538 0 l 538 90 q 338 -11 457 -11 q 139 58 219 -11 q 58 241 58 126 q 142 413 58 356 q 369 469 225 469 l 525 469 l 525 474 q 399 593 525 593 q 284 572 344 593 q 182 518 224 550 l 89 653 q 425 760 236 760 q 647 692 561 760 q 733 476 733 624 l 733 0 m 524 285 l 524 321 l 393 321 q 268 243 268 321 q 298 181 268 203 q 383 160 328 160 q 481 194 439 160 q 524 285 524 228 m 483 849 l 285 849 l 461 1094 l 676 1004 l 483 849 z "},"â":{"ha":825,"x_min":58,"x_max":733,"o":"m 733 0 l 538 0 l 538 90 q 338 -11 457 -11 q 139 58 219 -11 q 58 241 58 126 q 142 413 58 356 q 369 469 225 469 l 525 469 l 525 474 q 399 593 525 593 q 284 572 344 593 q 182 518 224 550 l 89 653 q 425 760 236 760 q 647 692 561 760 q 733 476 733 624 l 733 0 m 524 285 l 524 321 l 393 321 q 268 243 268 321 q 298 181 268 203 q 383 160 328 160 q 481 194 439 160 q 524 285 524 228 m 301 849 l 131 849 l 288 1068 l 547 1068 l 704 849 l 533 849 l 417 961 l 301 849 z "},"ã":{"ha":825,"x_min":58,"x_max":733,"o":"m 733 0 l 538 0 l 538 90 q 338 -11 457 -11 q 139 58 219 -11 q 58 241 58 126 q 142 413 58 356 q 369 469 225 469 l 525 469 l 525 474 q 399 593 525 593 q 284 572 344 593 q 182 518 224 550 l 89 653 q 425 760 236 760 q 647 692 561 760 q 733 476 733 624 l 733 0 m 524 285 l 524 321 l 393 321 q 268 243 268 321 q 298 181 268 203 q 383 160 328 160 q 481 194 439 160 q 524 285 524 228 m 324 921 q 282 849 281 921 l 135 849 q 180 1013 135 953 q 296 1072 225 1072 q 403 1034 340 1072 q 481 996 467 996 q 522 1068 524 996 l 669 1068 q 624 904 669 964 q 508 844 579 844 q 400 883 465 844 q 324 921 335 921 z "},"ä":{"ha":825,"x_min":58,"x_max":733,"o":"m 733 0 l 538 0 l 538 90 q 338 -11 457 -11 q 139 58 219 -11 q 58 241 58 126 q 142 413 58 356 q 369 469 225 469 l 525 469 l 525 474 q 399 593 525 593 q 284 572 344 593 q 182 518 224 550 l 89 653 q 425 760 236 760 q 647 692 561 760 q 733 476 733 624 l 733 0 m 524 285 l 524 321 l 393 321 q 268 243 268 321 q 298 181 268 203 q 383 160 328 160 q 481 194 439 160 q 524 285 524 228 m 210 887 q 195 902 210 887 q 181 960 181 917 q 210 1033 181 1003 q 283 1063 240 1063 q 356 1033 326 1063 q 386 960 386 1003 q 356 887 386 917 q 283 857 326 857 q 210 887 240 857 m 478 887 q 464 902 478 887 q 449 960 449 917 q 478 1033 449 1003 q 551 1063 508 1063 q 624 1033 594 1063 q 654 960 654 1003 q 624 887 654 917 q 551 857 594 857 q 478 887 508 857 z "},"å":{"ha":825,"x_min":58,"x_max":733,"o":"m 733 0 l 538 0 l 538 90 q 338 -11 457 -11 q 139 58 219 -11 q 58 241 58 126 q 142 413 58 356 q 369 469 225 469 l 525 469 l 525 474 q 399 593 525 593 q 284 572 344 593 q 182 518 224 550 l 89 653 q 425 760 236 760 q 647 692 561 760 q 733 476 733 624 l 733 0 m 524 285 l 524 321 l 393 321 q 268 243 268 321 q 298 181 268 203 q 383 160 328 160 q 481 194 439 160 q 524 285 524 228 m 320 872 q 298 893 320 872 q 276 976 276 915 q 320 1081 276 1038 q 425 1125 364 1125 q 530 1081 486 1125 q 574 976 574 1038 q 530 872 574 915 q 425 828 486 828 q 320 872 364 828 m 391 1010 q 384 1003 391 1010 q 376 976 376 996 q 391 942 376 957 q 425 928 406 928 q 459 942 444 928 q 474 976 474 957 q 459 1010 474 996 q 425 1025 444 1025 q 391 1010 406 1025 z "},"æ":{"ha":1300,"x_min":56,"x_max":1243,"o":"m 1243 304 l 731 304 l 731 297 q 789 198 742 235 q 897 161 836 161 q 1081 265 996 161 l 1203 129 q 886 -11 1069 -11 q 624 94 726 -11 q 350 -11 517 -11 q 142 58 228 -11 q 56 238 56 128 q 367 464 56 464 l 522 464 l 522 474 q 401 590 522 590 q 193 504 315 590 l 100 639 q 412 760 250 760 q 656 682 574 760 q 897 760 753 760 q 1142 667 1040 760 q 1243 411 1243 575 l 1243 304 m 521 285 l 521 304 l 390 304 q 297 293 329 304 q 265 242 265 282 q 295 181 265 203 q 381 160 325 160 q 478 194 436 160 q 521 285 521 228 m 1031 464 q 983 556 1021 524 q 891 588 946 588 q 791 554 836 588 q 733 464 746 521 l 1031 464 z "},"ç":{"ha":810,"x_min":57,"x_max":769,"o":"m 458 174 q 646 278 563 174 l 769 139 q 522 -4 657 22 l 485 -74 q 575 -179 575 -104 q 526 -283 575 -239 q 401 -328 476 -328 q 256 -283 326 -328 l 308 -164 q 363 -190 339 -190 q 399 -178 386 -190 q 413 -147 413 -165 q 396 -113 413 -128 q 356 -99 379 -99 q 307 -111 333 -99 l 364 -3 q 144 125 232 25 q 57 372 57 225 q 174 652 57 544 q 453 760 292 760 q 616 726 533 760 q 761 628 699 693 l 653 486 q 565 553 617 529 q 461 576 513 576 q 320 523 379 576 q 261 374 261 469 q 320 226 261 279 q 458 174 379 174 z "},"è":{"ha":858,"x_min":57,"x_max":807,"o":"m 746 108 q 449 -11 619 -11 q 168 94 279 -11 q 57 375 57 199 q 170 656 57 551 q 438 760 283 760 q 699 667 592 760 q 807 411 807 574 l 807 300 l 263 300 q 326 200 272 239 q 449 161 381 161 q 629 235 558 161 l 746 108 m 596 449 q 546 551 589 515 q 441 588 503 588 q 328 550 379 588 q 268 449 276 513 l 596 449 m 563 849 l 364 849 l 171 1004 l 385 1096 l 563 849 z "},"é":{"ha":858,"x_min":57,"x_max":807,"o":"m 746 108 q 449 -11 619 -11 q 168 94 279 -11 q 57 375 57 199 q 170 656 57 551 q 438 760 283 760 q 699 667 592 760 q 807 411 807 574 l 807 300 l 263 300 q 326 200 272 239 q 449 161 381 161 q 629 235 558 161 l 746 108 m 596 449 q 546 551 589 515 q 441 588 503 588 q 328 550 379 588 q 268 449 276 513 l 596 449 m 501 849 l 303 849 l 479 1094 l 694 1004 l 501 849 z "},"ê":{"ha":858,"x_min":57,"x_max":807,"o":"m 746 108 q 449 -11 619 -11 q 168 94 279 -11 q 57 375 57 199 q 170 656 57 551 q 438 760 283 760 q 699 667 592 760 q 807 411 807 574 l 807 300 l 263 300 q 326 200 272 239 q 449 161 381 161 q 629 235 558 161 l 746 108 m 596 449 q 546 551 589 515 q 441 588 503 588 q 328 550 379 588 q 268 449 276 513 l 596 449 m 313 849 l 142 849 l 299 1068 l 558 1068 l 715 849 l 544 849 l 428 961 l 313 849 z "},"ë":{"ha":858,"x_min":57,"x_max":807,"o":"m 746 108 q 449 -11 619 -11 q 168 94 279 -11 q 57 375 57 199 q 170 656 57 551 q 438 760 283 760 q 699 667 592 760 q 807 411 807 574 l 807 300 l 263 300 q 326 200 272 239 q 449 161 381 161 q 629 235 558 161 l 746 108 m 596 449 q 546 551 589 515 q 441 588 503 588 q 328 550 379 588 q 268 449 276 513 l 596 449 m 231 887 q 216 902 231 887 q 201 960 201 917 q 231 1033 201 1003 q 304 1063 261 1063 q 377 1033 347 1063 q 407 960 407 1003 q 377 887 407 917 q 304 857 347 857 q 231 887 261 857 m 499 887 q 484 902 499 887 q 469 960 469 917 q 499 1033 469 1003 q 572 1063 529 1063 q 645 1033 615 1063 q 675 960 675 1003 q 645 887 675 917 q 572 857 615 857 q 499 887 529 857 z "},"ì":{"ha":406,"x_min":-82,"x_max":310,"o":"m 99 747 l 307 747 l 307 0 l 99 0 l 99 747 m 310 849 l 111 849 l -82 1004 l 132 1096 l 310 849 z "},"í":{"ha":406,"x_min":99,"x_max":497,"o":"m 99 747 l 307 747 l 307 0 l 99 0 l 99 747 m 304 849 l 106 849 l 282 1094 l 497 1004 l 304 849 z "},"î":{"ha":406,"x_min":-57,"x_max":461,"o":"m 201 947 l 100 849 l -57 849 l 100 1068 l 304 1068 l 461 849 l 304 849 l 201 947 m 99 747 l 307 747 l 307 0 l 99 0 l 99 747 z "},"ï":{"ha":406,"x_min":-33,"x_max":440,"o":"m 99 747 l 307 747 l 307 0 l 99 0 l 99 747 m -3 887 q -18 902 -3 887 q -33 960 -33 917 q -3 1033 -33 1003 q 69 1063 26 1063 q 142 1033 113 1063 q 172 960 172 1003 q 142 887 172 917 q 69 857 113 857 q -3 887 26 857 m 265 887 q 250 902 265 887 q 235 960 235 917 q 265 1033 235 1003 q 338 1063 294 1063 q 410 1033 381 1063 q 440 960 440 1003 q 410 887 440 917 q 338 857 381 857 q 265 887 294 857 z "},"ð":{"ha":829,"x_min":61,"x_max":769,"o":"m 769 375 q 677 95 769 201 q 424 -11 585 -11 q 163 84 264 -11 q 61 328 61 179 q 161 574 61 478 q 403 669 261 669 q 467 664 439 669 q 381 763 439 699 l 261 685 l 149 793 l 271 872 q 225 911 250 890 l 174 954 l 344 1056 q 440 974 403 1008 l 550 1046 l 665 938 l 550 861 q 769 375 769 610 m 267 329 q 267 295 267 329 q 307 213 267 261 q 415 164 347 164 q 523 213 482 164 q 564 329 564 261 q 522 446 564 397 q 414 494 481 494 q 307 446 347 494 q 267 329 267 397 z "},"ñ":{"ha":888,"x_min":99,"x_max":797,"o":"m 307 417 l 307 0 l 99 0 l 99 747 l 307 747 l 307 664 q 519 760 401 760 q 717 676 638 760 q 797 454 797 593 l 797 0 l 589 0 l 589 422 q 463 594 589 594 q 353 549 400 594 q 307 417 307 504 m 372 921 q 331 849 329 921 l 183 849 q 228 1013 183 953 q 344 1072 274 1072 q 452 1034 389 1072 q 529 996 515 996 q 571 1068 572 996 l 718 1068 q 673 904 718 964 q 557 844 628 844 q 449 883 514 844 q 372 921 383 921 z "},"ò":{"ha":900,"x_min":56,"x_max":846,"o":"m 265 374 q 265 328 265 374 q 317 224 265 282 q 451 167 369 167 q 584 224 532 167 q 636 374 636 282 q 584 524 636 465 q 451 582 532 582 q 317 524 369 582 q 265 374 265 465 m 846 374 q 846 292 846 374 q 733 100 846 211 q 451 -11 621 -11 q 168 100 281 -11 q 56 374 56 211 q 168 648 56 536 q 451 760 281 760 q 733 648 621 760 q 846 374 846 536 m 563 849 l 364 849 l 171 1004 l 385 1096 l 563 849 z "},"ó":{"ha":900,"x_min":56,"x_max":846,"o":"m 265 374 q 265 328 265 374 q 317 224 265 282 q 451 167 369 167 q 584 224 532 167 q 636 374 636 282 q 584 524 636 465 q 451 582 532 582 q 317 524 369 582 q 265 374 265 465 m 846 374 q 846 292 846 374 q 733 100 846 211 q 451 -11 621 -11 q 168 100 281 -11 q 56 374 56 211 q 168 648 56 536 q 451 760 281 760 q 733 648 621 760 q 846 374 846 536 m 529 849 l 331 849 l 507 1094 l 722 1004 l 529 849 z "},"ô":{"ha":900,"x_min":56,"x_max":846,"o":"m 265 374 q 265 328 265 374 q 317 224 265 282 q 451 167 369 167 q 584 224 532 167 q 636 374 636 282 q 584 524 636 465 q 451 582 532 582 q 317 524 369 582 q 265 374 265 465 m 846 374 q 846 292 846 374 q 733 100 846 211 q 451 -11 621 -11 q 168 100 281 -11 q 56 374 56 211 q 168 648 56 536 q 451 760 281 760 q 733 648 621 760 q 846 374 846 536 m 340 849 l 169 849 l 326 1068 l 586 1068 l 743 849 l 572 849 l 456 961 l 340 849 z "},"õ":{"ha":900,"x_min":56,"x_max":846,"o":"m 265 374 q 265 328 265 374 q 317 224 265 282 q 451 167 369 167 q 584 224 532 167 q 636 374 636 282 q 584 524 636 465 q 451 582 532 582 q 317 524 369 582 q 265 374 265 465 m 846 374 q 846 292 846 374 q 733 100 846 211 q 451 -11 621 -11 q 168 100 281 -11 q 56 374 56 211 q 168 648 56 536 q 451 760 281 760 q 733 648 621 760 q 846 374 846 536 m 374 921 q 332 849 331 921 l 185 849 q 230 1013 185 953 q 346 1072 275 1072 q 453 1034 390 1072 q 531 996 517 996 q 572 1068 574 996 l 719 1068 q 674 904 719 964 q 558 844 629 844 q 450 883 515 844 q 374 921 385 921 z "},"ö":{"ha":900,"x_min":56,"x_max":846,"o":"m 265 374 q 265 328 265 374 q 317 224 265 282 q 451 167 369 167 q 584 224 532 167 q 636 374 636 282 q 584 524 636 465 q 451 582 532 582 q 317 524 369 582 q 265 374 265 465 m 846 374 q 846 292 846 374 q 733 100 846 211 q 451 -11 621 -11 q 168 100 281 -11 q 56 374 56 211 q 168 648 56 536 q 451 760 281 760 q 733 648 621 760 q 846 374 846 536 m 244 887 q 229 902 244 887 q 214 960 214 917 q 244 1033 214 1003 q 317 1063 274 1063 q 390 1033 360 1063 q 419 960 419 1003 q 390 887 419 917 q 317 857 360 857 q 244 887 274 857 m 512 887 q 497 902 512 887 q 482 960 482 917 q 512 1033 482 1003 q 585 1063 542 1063 q 658 1033 628 1063 q 688 960 688 1003 q 658 887 688 917 q 585 857 628 857 q 512 887 542 857 z "},"÷":{"ha":808,"x_min":67,"x_max":742,"o":"m 317 135 q 300 153 317 135 q 282 222 282 171 q 317 309 282 274 q 404 344 353 344 q 491 309 456 344 q 526 222 526 274 q 491 135 526 171 q 404 100 456 100 q 317 135 353 100 m 317 662 q 300 680 317 662 q 282 749 282 697 q 317 835 282 800 q 404 871 353 871 q 491 835 456 871 q 526 749 526 800 q 491 662 526 697 q 404 626 456 626 q 317 662 353 626 m 67 571 l 742 571 l 742 400 l 67 400 l 67 571 z "},"ø":{"ha":900,"x_min":56,"x_max":846,"o":"m 450 -11 q 388 -7 419 -11 l 326 -140 l 131 -140 l 221 57 q 99 193 143 110 q 56 374 56 276 q 168 648 56 536 q 450 760 281 760 q 539 750 499 760 l 592 868 l 789 868 l 701 676 q 846 374 846 561 q 733 100 846 211 q 450 -11 621 -11 m 450 582 q 317 524 369 582 q 265 380 265 465 q 304 240 265 294 l 461 582 l 450 582 m 468 168 q 590 231 543 175 q 636 361 636 288 q 613 482 636 435 l 468 168 z "},"ù":{"ha":889,"x_min":90,"x_max":790,"o":"m 581 344 l 581 747 l 790 747 l 790 0 l 581 0 l 581 99 q 380 -11 503 -11 q 174 66 257 -11 q 90 294 90 143 l 90 747 l 300 747 l 300 340 q 426 168 300 168 q 535 213 489 168 q 581 344 581 258 m 560 849 l 361 849 l 168 1004 l 382 1096 l 560 849 z "},"ú":{"ha":889,"x_min":90,"x_max":790,"o":"m 581 344 l 581 747 l 790 747 l 790 0 l 581 0 l 581 99 q 380 -11 503 -11 q 174 66 257 -11 q 90 294 90 143 l 90 747 l 300 747 l 300 340 q 426 168 300 168 q 535 213 489 168 q 581 344 581 258 m 526 849 l 328 849 l 504 1094 l 719 1004 l 526 849 z "},"û":{"ha":889,"x_min":90,"x_max":790,"o":"m 581 344 l 581 747 l 790 747 l 790 0 l 581 0 l 581 99 q 380 -11 503 -11 q 174 66 257 -11 q 90 294 90 143 l 90 747 l 300 747 l 300 340 q 426 168 300 168 q 535 213 489 168 q 581 344 581 258 m 328 849 l 157 849 l 314 1068 l 574 1068 l 731 849 l 560 849 l 443 961 l 328 849 z "},"ü":{"ha":889,"x_min":90,"x_max":790,"o":"m 581 344 l 581 747 l 790 747 l 790 0 l 581 0 l 581 99 q 380 -11 503 -11 q 174 66 257 -11 q 90 294 90 143 l 90 747 l 300 747 l 300 340 q 426 168 300 168 q 535 213 489 168 q 581 344 581 258 m 228 887 q 214 902 228 887 q 199 960 199 917 q 228 1033 199 1003 q 301 1063 258 1063 q 374 1033 344 1063 q 404 960 404 1003 q 374 887 404 917 q 301 857 344 857 q 228 887 258 857 m 497 887 q 482 902 497 887 q 467 960 467 917 q 497 1033 467 1003 q 569 1063 526 1063 q 642 1033 613 1063 q 672 960 672 1003 q 642 887 672 917 q 569 857 613 857 q 497 887 526 857 z "},"ý":{"ha":819,"x_min":6,"x_max":814,"o":"m 228 -294 q 21 -206 118 -294 l 115 -51 q 224 -103 168 -103 q 274 -74 253 -103 q 294 -14 294 -46 q 6 747 294 18 l 228 747 l 410 282 l 592 747 l 814 747 l 467 -133 q 372 -252 436 -210 q 228 -294 307 -294 m 486 849 l 288 849 l 464 1094 l 679 1004 l 486 849 z "},"þ":{"ha":925,"x_min":99,"x_max":868,"o":"m 507 760 q 760 656 653 760 q 868 378 868 551 q 760 97 868 204 q 510 -11 653 -11 q 307 60 399 -11 l 307 -269 l 99 -269 l 99 1031 l 307 1031 l 307 685 q 507 760 390 760 m 304 373 q 304 327 304 373 q 355 224 304 282 q 478 167 406 167 q 604 224 550 167 q 658 372 658 282 q 606 524 658 463 q 479 585 553 585 q 355 524 406 585 q 304 373 304 464 z "},"ÿ":{"ha":819,"x_min":6,"x_max":814,"o":"m 228 -294 q 21 -206 118 -294 l 115 -51 q 224 -103 168 -103 q 274 -74 253 -103 q 294 -14 294 -46 q 6 747 294 18 l 228 747 l 410 282 l 592 747 l 814 747 l 467 -133 q 372 -252 436 -210 q 228 -294 307 -294 m 202 887 q 187 902 202 887 q 172 960 172 917 q 202 1033 172 1003 q 275 1063 232 1063 q 348 1033 318 1063 q 378 960 378 1003 q 348 887 378 917 q 275 857 318 857 q 202 887 232 857 m 470 887 q 455 902 470 887 q 440 960 440 917 q 470 1033 440 1003 q 543 1063 500 1063 q 616 1033 586 1063 q 646 960 646 1003 q 616 887 646 917 q 543 857 586 857 q 470 887 500 857 z "},"ħ":{"ha":888,"x_min":33,"x_max":797,"o":"m 307 403 l 307 0 l 99 0 l 99 797 l 33 797 l 33 918 l 99 918 l 99 1031 l 307 1031 l 307 918 l 460 918 l 460 797 l 307 797 l 307 664 q 519 760 401 760 q 717 676 636 760 q 797 454 797 593 l 797 0 l 589 0 l 589 408 q 463 581 589 581 q 353 535 400 581 q 307 403 307 490 z "},"Ĩ":{"ha":456,"x_min":-42,"x_max":493,"o":"m 119 971 l 336 971 l 336 0 l 119 0 l 119 971 m 147 1140 q 106 1068 104 1140 l -42 1068 q 3 1232 -42 1172 q 119 1292 49 1292 q 227 1253 164 1292 q 304 1215 290 1215 q 346 1288 347 1215 l 493 1288 q 448 1124 493 1183 q 332 1064 403 1064 q 224 1102 289 1064 q 147 1140 158 1140 z "},"ĩ":{"ha":406,"x_min":-65,"x_max":469,"o":"m 99 747 l 307 747 l 307 0 l 99 0 l 99 747 m 124 921 q 82 849 81 921 l -65 849 q -20 1013 -65 953 q 96 1072 25 1072 q 203 1034 140 1072 q 281 996 267 996 q 322 1068 324 996 l 469 1068 q 424 904 469 964 q 308 844 379 844 q 200 883 265 844 q 124 921 135 921 z "},"ı":{"ha":406,"x_min":99,"x_max":307,"o":"m 99 747 l 307 747 l 307 0 l 99 0 l 99 747 z "},"ĳ":{"ha":832,"x_min":82,"x_max":750,"o":"m 307 0 l 99 0 l 99 747 l 307 747 l 307 0 m 525 -11 l 525 747 l 733 747 l 733 -17 q 659 -210 733 -139 q 477 -281 585 -281 q 272 -192 369 -281 l 369 -32 q 467 -97 436 -97 q 525 -11 525 -97 m 117 841 q 100 859 117 841 q 82 928 82 876 q 117 1015 82 979 q 204 1050 153 1050 q 291 1015 256 1050 q 326 928 326 979 q 291 841 326 876 q 204 806 256 806 q 117 841 153 806 m 541 841 q 523 859 541 841 q 506 928 506 876 q 541 1015 506 979 q 628 1050 576 1050 q 715 1015 679 1050 q 750 928 750 979 q 715 841 750 876 q 628 806 679 806 q 541 841 576 806 z "},"Ĵ":{"ha":772,"x_min":36,"x_max":700,"o":"m 156 785 l 156 971 l 661 971 l 661 338 q 572 78 661 164 q 342 -8 482 -8 q 36 126 167 -8 l 149 282 q 332 188 236 188 q 410 223 378 188 q 443 329 443 258 l 443 785 l 156 785 m 297 1068 l 126 1068 l 283 1288 l 543 1288 l 700 1068 l 529 1068 l 413 1181 l 297 1068 z "},"ĵ":{"ha":406,"x_min":-154,"x_max":489,"o":"m 99 -14 l 99 747 l 307 747 l 307 -31 q 233 -224 307 -153 q 51 -294 158 -294 q -154 -206 -57 -294 l -58 -51 q 35 -100 -17 -100 q 81 -78 63 -100 q 99 -14 99 -57 m 86 849 l -85 849 l 72 1068 l 332 1068 l 489 849 l 318 849 l 201 961 l 86 849 z "},"ķ":{"ha":826,"x_min":99,"x_max":813,"o":"m 307 0 l 99 0 l 99 1031 l 307 1031 l 307 501 l 539 749 l 801 749 l 517 446 l 813 0 l 565 0 l 375 286 l 307 215 l 307 0 m 571 -176 q 522 -281 571 -236 q 397 -325 472 -325 q 251 -281 322 -325 l 304 -161 q 358 -187 335 -187 q 395 -175 382 -187 q 408 -144 408 -162 q 392 -110 408 -125 q 353 -96 375 -96 q 303 -108 331 -96 l 360 0 l 519 0 l 481 -71 q 571 -176 571 -101 z "},"ĸ":{"ha":826,"x_min":99,"x_max":813,"o":"m 307 0 l 99 0 l 99 747 l 307 747 l 307 501 l 539 747 l 801 747 l 517 446 l 813 0 l 565 0 l 375 286 l 307 215 l 307 0 z "},"ŀ":{"ha":553,"x_min":99,"x_max":601,"o":"m 307 0 l 99 0 l 99 1031 l 307 1031 l 307 0 m 392 358 q 375 375 392 358 q 357 444 357 393 q 392 531 357 496 q 479 567 428 567 q 566 531 531 567 q 601 444 601 496 q 566 358 601 393 q 479 322 531 322 q 392 358 428 322 z "},"Ł":{"ha":811,"x_min":39,"x_max":772,"o":"m 142 969 l 358 969 l 358 536 l 643 626 l 643 438 l 358 347 l 358 193 l 772 193 l 772 0 l 142 0 l 142 279 l 39 247 l 39 435 l 142 468 l 142 969 z "},"ł":{"ha":504,"x_min":50,"x_max":464,"o":"m 157 969 l 367 969 l 367 553 l 464 582 l 464 393 l 367 365 l 367 0 l 157 0 l 157 306 l 50 274 l 50 463 l 157 493 l 157 969 z "},"Ń":{"ha":1135,"x_min":119,"x_max":1015,"o":"m 799 971 l 1015 971 l 1015 0 l 799 0 l 336 608 l 336 0 l 119 0 l 119 971 l 322 971 l 799 346 l 799 971 m 654 1071 l 456 1071 l 632 1317 l 847 1226 l 654 1071 z "},"ń":{"ha":888,"x_min":99,"x_max":797,"o":"m 307 417 l 307 0 l 99 0 l 99 747 l 307 747 l 307 664 q 519 760 401 760 q 717 676 638 760 q 797 454 797 593 l 797 0 l 589 0 l 589 422 q 463 594 589 594 q 353 549 400 594 q 307 417 307 504 m 526 849 l 328 849 l 504 1094 l 719 1004 l 526 849 z "},"Œ":{"ha":1447,"x_min":65,"x_max":1374,"o":"m 1358 969 l 1358 778 l 875 778 l 875 578 l 1308 578 l 1308 393 l 875 393 l 875 192 l 1374 192 l 1374 0 l 560 0 q 208 139 350 0 q 65 485 65 278 q 208 831 65 692 q 560 969 350 969 l 1358 969 m 574 788 q 376 699 457 788 q 296 485 296 611 q 376 271 296 360 q 574 182 457 182 l 657 182 l 657 788 l 574 788 z "},"œ":{"ha":1438,"x_min":56,"x_max":1386,"o":"m 1325 108 q 1022 -11 1199 -11 q 736 104 844 -11 q 452 -11 624 -11 q 168 100 281 -11 q 56 374 56 211 q 168 648 56 536 q 452 760 281 760 q 738 643 624 760 q 1009 760 847 760 q 1278 667 1171 760 q 1386 411 1386 574 l 1386 300 l 842 300 q 906 200 851 239 q 1028 161 960 161 q 1208 235 1138 161 l 1325 108 m 636 364 l 636 374 q 584 524 636 465 q 451 582 532 582 q 317 524 369 582 q 265 374 265 465 q 317 224 265 282 q 449 167 369 167 q 581 222 529 167 q 636 364 633 276 m 1175 449 q 1125 551 1168 515 q 1020 588 1082 588 q 907 550 958 588 q 847 449 856 513 l 1175 449 z "},"Ŕ":{"ha":1010,"x_min":119,"x_max":968,"o":"m 907 649 q 722 347 907 415 l 968 0 l 701 0 l 486 310 l 336 310 l 336 0 l 119 0 l 119 971 l 488 971 q 810 894 714 971 q 907 649 907 818 m 494 497 q 646 533 606 497 q 686 648 686 569 q 644 756 686 726 q 499 785 603 785 l 336 785 l 336 497 l 494 497 m 482 1071 l 283 1071 l 460 1317 l 675 1226 l 482 1071 z "},"Ŗ":{"ha":1010,"x_min":119,"x_max":968,"o":"m 342 -347 l 432 -76 l 628 -76 l 517 -347 l 342 -347 m 907 649 q 722 347 907 415 l 968 0 l 701 0 l 486 310 l 336 310 l 336 0 l 119 0 l 119 971 l 488 971 q 810 894 714 971 q 907 649 907 818 m 494 497 q 646 533 606 497 q 686 648 686 569 q 644 756 686 726 q 499 785 603 785 l 336 785 l 336 497 l 494 497 z "},"ŗ":{"ha":571,"x_min":22,"x_max":532,"o":"m 22 -347 l 113 -76 l 308 -76 l 197 -347 l 22 -347 m 492 564 q 353 498 399 564 q 307 324 307 432 l 307 0 l 99 0 l 99 749 l 307 749 l 307 649 q 408 727 349 694 q 531 761 468 760 l 532 564 l 492 564 z "},"Ř":{"ha":1010,"x_min":119,"x_max":968,"o":"m 907 649 q 722 347 907 415 l 968 0 l 701 0 l 486 310 l 336 310 l 336 0 l 119 0 l 119 971 l 488 971 q 810 894 714 971 q 907 649 907 818 m 494 497 q 646 533 606 497 q 686 648 686 569 q 644 756 686 726 q 499 785 603 785 l 336 785 l 336 497 l 494 497 m 181 1288 l 351 1288 l 467 1175 l 583 1288 l 754 1288 l 597 1068 l 338 1068 l 181 1288 z "},"ř":{"ha":571,"x_min":10,"x_max":583,"o":"m 492 564 q 353 498 399 564 q 307 324 307 432 l 307 0 l 99 0 l 99 747 l 307 747 l 307 649 q 408 726 347 694 q 531 760 468 758 l 532 564 l 492 564 m 10 1068 l 181 1068 l 296 956 l 413 1068 l 583 1068 l 426 849 l 167 849 l 10 1068 z "},"Š":{"ha":886,"x_min":50,"x_max":821,"o":"m 432 803 q 347 777 378 803 q 315 709 315 751 q 353 642 315 667 q 530 583 392 617 q 744 481 668 549 q 821 282 821 413 q 723 70 821 151 q 465 -11 625 -11 q 50 160 235 -11 l 179 318 q 469 181 336 181 q 563 206 529 181 q 597 276 597 232 q 561 345 597 319 q 418 397 525 371 q 170 502 249 438 q 92 705 92 567 q 191 918 92 843 q 439 993 290 993 q 633 960 536 993 q 803 865 731 926 l 693 707 q 432 803 567 803 m 140 1288 l 311 1288 l 426 1175 l 543 1288 l 714 1288 l 557 1068 l 297 1068 l 140 1288 z "},"š":{"ha":722,"x_min":38,"x_max":661,"o":"m 661 233 q 661 177 661 233 q 580 56 661 122 q 374 -11 499 -11 q 200 19 290 -11 q 38 107 110 49 l 129 238 q 378 147 246 147 q 442 163 418 147 q 465 206 465 179 q 433 254 465 232 q 338 296 400 276 q 244 329 276 315 q 169 369 211 343 q 85 526 85 422 q 168 694 85 629 q 383 760 251 760 q 647 671 515 760 l 569 532 q 376 599 472 599 q 279 546 279 599 q 310 500 279 517 q 411 461 340 483 q 512 427 482 439 q 583 390 542 415 q 661 233 661 343 m 81 1068 l 251 1068 l 367 956 l 483 1068 l 654 1068 l 497 849 l 238 849 l 81 1068 z "},"Ž":{"ha":946,"x_min":64,"x_max":876,"o":"m 64 0 l 64 149 l 572 783 l 81 783 l 81 971 l 868 971 l 868 821 l 361 189 l 876 189 l 876 0 l 64 0 m 176 1288 l 347 1288 l 463 1175 l 579 1288 l 750 1288 l 593 1068 l 333 1068 l 176 1288 z "},"ž":{"ha":768,"x_min":58,"x_max":708,"o":"m 85 575 l 85 747 l 688 747 l 688 585 l 325 174 l 708 174 l 708 0 l 58 0 l 58 172 l 411 575 l 85 575 m 101 1068 l 272 1068 l 388 956 l 504 1068 l 675 1068 l 518 849 l 258 849 l 101 1068 z "},"ƒ":{"ha":982,"x_min":38,"x_max":940,"o":"m 447 789 q 546 983 464 915 q 744 1051 628 1051 q 940 965 860 1051 l 840 811 q 749 860 810 860 q 692 836 717 860 q 658 768 667 813 l 633 589 l 818 589 l 800 439 l 613 439 l 551 -4 q 458 -205 533 -129 q 259 -281 383 -281 q 38 -192 135 -281 l 129 -40 q 251 -97 189 -97 q 339 -3 326 -97 l 399 439 l 311 439 l 329 589 l 419 589 l 447 789 z "},"ˆ":{"ha":671,"x_min":49,"x_max":622,"o":"m 219 1071 l 49 1071 l 206 1290 l 465 1290 l 622 1071 l 451 1071 l 335 1183 l 219 1071 z "},"ˇ":{"ha":851,"x_min":139,"x_max":713,"o":"m 139 1275 l 310 1275 l 425 1163 l 542 1275 l 713 1275 l 556 1056 l 296 1056 l 139 1275 z "},"˘":{"ha":789,"x_min":139,"x_max":650,"o":"m 307 1008 q 394 925 332 925 q 482 1008 457 925 l 650 1008 q 571 831 640 894 q 394 767 501 767 q 218 831 288 767 q 139 1008 149 894 l 307 1008 z "},"˙":{"ha":432,"x_min":76,"x_max":357,"o":"m 117 848 q 97 868 117 848 q 76 947 76 889 q 117 1047 76 1006 q 217 1088 158 1088 q 316 1047 275 1088 q 357 947 357 1006 q 316 848 357 889 q 217 807 275 807 q 117 848 158 807 z "},"˚":{"ha":575,"x_min":139,"x_max":436,"o":"m 183 872 q 161 893 183 872 q 139 976 139 915 q 183 1081 139 1038 q 288 1125 226 1125 q 392 1081 349 1125 q 436 976 436 1038 q 392 872 436 915 q 288 828 349 828 q 183 872 226 828 m 253 1010 q 246 1003 253 1010 q 239 976 239 996 q 253 942 239 957 q 288 928 268 928 q 322 942 307 928 q 336 976 336 957 q 322 1010 336 996 q 288 1025 307 1025 q 253 1010 268 1025 z "},"˛":{"ha":299,"x_min":25,"x_max":301,"o":"m 174 -179 q 231 -139 204 -179 l 301 -185 q 227 -272 261 -250 q 142 -294 193 -294 q 58 -260 92 -294 q 25 -182 25 -225 q 43 -99 25 -139 q 81 -35 61 -58 l 99 -11 l 200 -11 q 136 -144 136 -94 q 174 -179 136 -179 z "},"˜":{"ha":813,"x_min":149,"x_max":683,"o":"m 338 921 q 296 849 294 921 l 149 849 q 194 1013 149 953 q 310 1072 239 1072 q 417 1034 354 1072 q 494 996 481 996 q 536 1068 538 996 l 683 1068 q 638 904 683 964 q 522 844 593 844 q 414 883 479 844 q 338 921 349 921 z "},"˝":{"ha":703,"x_min":22,"x_max":708,"o":"m 207 849 l 22 849 l 199 1094 l 400 1004 l 207 849 m 515 849 l 317 849 l 507 1094 l 708 1004 l 515 849 z "},"π":{"ha":1033,"x_min":32,"x_max":989,"o":"m 215 507 q 233 447 215 483 l 61 399 q 32 518 32 457 q 106 681 32 614 q 300 747 181 747 l 989 747 l 989 565 l 856 565 l 856 0 l 647 0 l 647 565 l 503 565 q 469 264 497 432 q 404 0 440 96 l 207 0 q 274 277 246 115 q 304 565 301 439 q 215 507 215 565 z "},"–":{"ha":754,"x_min":103,"x_max":651,"o":"m 103 299 l 103 433 l 651 433 l 651 299 l 103 299 z "},"—":{"ha":968,"x_min":89,"x_max":879,"o":"m 89 300 l 89 433 l 879 433 l 879 300 l 89 300 z "},"‘":{"ha":333,"x_min":50,"x_max":296,"o":"m 233 828 q 279 742 279 797 q 247 656 279 688 q 165 624 214 624 q 83 654 115 624 q 50 733 50 685 q 81 829 50 782 l 182 976 l 296 976 l 233 828 z "},"’":{"ha":333,"x_min":38,"x_max":283,"o":"m 100 768 q 54 853 54 799 q 87 940 54 908 q 169 972 119 972 q 251 942 218 972 q 283 863 283 911 q 253 767 283 814 l 151 619 l 38 619 l 100 768 z "},"‚":{"ha":333,"x_min":38,"x_max":283,"o":"m 100 15 q 54 101 54 46 q 87 188 54 156 q 169 219 119 219 q 251 189 218 219 q 283 110 283 158 q 253 14 283 61 l 151 -133 l 38 -133 l 100 15 z "},"“":{"ha":590,"x_min":50,"x_max":553,"o":"m 233 828 q 279 742 279 797 q 247 656 279 688 q 165 624 214 624 q 83 654 115 624 q 50 733 50 685 q 81 829 50 782 l 182 976 l 296 976 l 233 828 m 490 828 q 536 742 536 797 q 503 656 536 688 q 422 624 471 624 q 340 654 372 624 q 307 733 307 685 q 338 829 307 782 l 439 976 l 553 976 l 490 828 z "},"”":{"ha":590,"x_min":38,"x_max":540,"o":"m 100 768 q 54 853 54 799 q 87 940 54 908 q 169 972 119 972 q 251 942 218 972 q 283 863 283 911 q 253 767 283 814 l 151 619 l 38 619 l 100 768 m 357 768 q 311 853 311 799 q 344 940 311 908 q 426 972 376 972 q 508 942 475 972 q 540 863 540 911 q 510 767 540 814 l 408 619 l 294 619 l 357 768 z "},"„":{"ha":590,"x_min":38,"x_max":540,"o":"m 100 15 q 54 101 54 46 q 87 188 54 156 q 169 219 119 219 q 251 189 218 219 q 283 110 283 158 q 253 14 283 61 l 151 -133 l 38 -133 l 100 15 m 357 15 q 311 101 311 46 q 344 188 311 156 q 426 219 376 219 q 508 189 475 219 q 540 110 540 158 q 510 14 540 61 l 408 -133 l 294 -133 l 357 15 z "},"†":{"ha":747,"x_min":49,"x_max":699,"o":"m 268 -257 l 268 518 l 49 518 l 49 699 l 268 699 l 268 971 l 469 971 l 469 699 l 699 699 l 699 518 l 469 518 l 469 -257 l 268 -257 z "},"‡":{"ha":742,"x_min":53,"x_max":690,"o":"m 471 518 l 471 253 l 608 253 l 608 99 l 471 99 l 471 -257 l 268 -257 l 268 99 l 126 99 l 126 253 l 268 253 l 268 518 l 53 518 l 53 699 l 268 699 l 268 971 l 471 971 l 471 699 l 690 699 l 690 518 l 471 518 z "},"•":{"ha":608,"x_min":111,"x_max":497,"o":"m 167 303 q 139 332 167 303 q 111 440 111 360 q 167 577 111 521 q 304 633 224 633 q 441 577 385 633 q 497 440 497 521 q 441 303 497 360 q 304 247 385 247 q 167 303 224 247 z "},"…":{"ha":974,"x_min":79,"x_max":894,"o":"m 685 23 q 668 41 685 23 q 650 110 650 58 q 685 197 650 161 q 772 232 721 232 q 859 197 824 232 q 894 110 894 161 q 859 23 894 58 q 772 -12 824 -12 q 685 23 721 -12 m 399 23 q 382 41 399 23 q 364 110 364 58 q 399 197 364 161 q 486 232 435 232 q 573 197 538 232 q 608 110 608 161 q 573 23 608 58 q 486 -12 538 -12 q 399 23 435 -12 m 115 23 q 97 41 115 23 q 79 110 79 58 q 115 197 79 161 q 201 232 150 232 q 288 197 253 232 q 324 110 324 161 q 288 23 324 58 q 201 -12 253 -12 q 115 23 150 -12 z "},"‰":{"ha":1551,"x_min":63,"x_max":1504,"o":"m 1006 971 l 310 0 l 71 0 l 768 971 l 1006 971 m 773 134 q 781 125 773 134 q 814 115 789 115 q 856 134 839 115 q 872 183 872 153 q 856 234 872 214 q 815 254 839 254 q 774 234 790 254 q 757 183 757 214 q 773 134 757 153 m 1019 183 q 1019 142 1019 183 q 961 45 1019 101 q 815 -11 903 -11 q 668 46 726 -11 q 610 184 610 103 q 668 322 610 265 q 815 379 726 379 q 961 322 903 379 q 1019 183 1019 265 m 226 702 q 234 693 226 702 q 267 683 242 683 q 308 702 292 683 q 325 751 325 721 q 308 802 325 782 q 267 822 292 822 q 226 802 243 822 q 210 751 210 782 q 226 702 210 721 m 472 751 q 472 710 472 751 q 414 613 472 669 q 267 557 356 557 q 121 614 179 557 q 63 752 63 671 q 121 890 63 833 q 267 947 179 947 q 414 890 356 947 q 472 751 472 833 m 1258 134 q 1266 125 1258 134 q 1299 115 1274 115 q 1340 134 1324 115 q 1357 183 1357 153 q 1340 234 1357 214 q 1299 254 1324 254 q 1258 234 1275 254 q 1242 183 1242 214 q 1258 134 1242 153 m 1504 183 q 1504 142 1504 183 q 1446 45 1504 101 q 1299 -11 1388 -11 q 1153 46 1211 -11 q 1094 184 1094 103 q 1153 322 1094 265 q 1299 379 1211 379 q 1446 322 1388 379 q 1504 183 1504 265 z "},"‹":{"ha":526,"x_min":67,"x_max":446,"o":"m 446 596 l 282 340 l 446 83 l 236 83 l 67 340 l 236 596 l 446 596 z "},"›":{"ha":526,"x_min":81,"x_max":460,"o":"m 244 340 l 81 596 l 290 596 l 460 340 l 290 83 l 81 83 l 244 340 z "},"⁄":{"ha":919,"x_min":-7,"x_max":928,"o":"m 928 969 l 231 0 l -7 0 l 689 969 l 928 969 z "},"€":{"ha":1064,"x_min":64,"x_max":1000,"o":"m 64 528 l 64 644 l 199 644 q 358 898 240 803 q 643 993 475 993 q 1000 825 851 993 l 876 664 q 638 788 775 788 q 422 644 482 788 l 746 644 l 746 528 l 397 528 q 396 486 396 514 q 397 446 396 458 l 746 446 l 746 329 l 429 329 q 520 229 463 264 q 647 194 578 194 q 872 304 785 194 l 1000 163 q 827 32 925 75 q 632 -11 729 -11 q 358 81 475 -11 q 199 329 242 174 l 64 329 l 64 446 l 181 446 q 179 486 179 458 q 181 528 179 514 l 64 528 z "},"™":{"ha":1375,"x_min":88,"x_max":1261,"o":"m 401 828 l 401 385 l 249 385 l 249 828 l 88 828 l 88 971 l 563 971 l 563 828 l 401 828 m 751 385 l 599 385 l 599 971 l 793 971 l 931 679 l 1068 971 l 1261 971 l 1261 385 l 1108 385 l 1108 696 l 978 431 l 882 431 l 751 696 l 751 385 z "},"Ω":{"ha":1250,"x_min":75,"x_max":1175,"o":"m 259 854 q 330 924 259 854 q 625 993 400 993 q 991 854 850 993 q 1132 522 1132 715 q 971 192 1132 329 l 1175 192 l 1175 0 l 678 0 l 678 183 q 860 318 790 219 q 929 531 929 417 q 848 724 929 644 q 625 804 767 804 q 402 724 483 804 q 321 531 321 644 q 390 318 321 417 q 572 183 460 219 l 572 0 l 75 0 l 75 192 l 279 192 q 118 522 118 329 q 259 854 118 715 z "},"∂":{"ha":846,"x_min":61,"x_max":768,"o":"m 382 994 q 657 867 546 994 q 768 499 768 740 q 688 144 768 285 q 571 30 646 71 q 394 -11 496 -11 q 156 88 251 -11 q 61 328 61 186 q 154 544 61 469 q 372 618 247 618 q 574 551 497 618 q 511 753 574 688 q 369 818 449 818 q 214 768 289 818 l 115 904 q 382 994 240 994 m 388 438 q 299 406 335 438 q 264 314 264 374 q 299 218 264 254 q 399 182 335 182 q 506 229 463 182 q 553 361 550 276 q 388 438 483 438 z "},"∆":{"ha":1115,"x_min":42,"x_max":1074,"o":"m 656 969 l 1074 0 l 42 0 l 460 969 l 656 969 m 354 189 l 760 189 l 557 654 l 354 189 z "},"∏":{"ha":1094,"x_min":115,"x_max":979,"o":"m 979 -294 l 754 -294 l 754 900 l 340 900 l 340 -294 l 115 -294 l 115 1094 l 979 1094 l 979 -294 z "},"∑":{"ha":986,"x_min":53,"x_max":929,"o":"m 929 -271 l 53 -271 l 53 -126 l 443 411 l 71 942 l 71 1088 l 903 1088 l 903 893 l 372 893 l 703 413 l 347 -76 l 929 -76 l 929 -271 z "},"−":{"ha":808,"x_min":67,"x_max":742,"o":"m 67 571 l 742 571 l 742 400 l 67 400 l 67 571 z "},"√":{"ha":1003,"x_min":33,"x_max":1000,"o":"m 33 411 l 33 588 l 329 588 l 483 93 l 788 1051 l 1000 1051 l 593 -217 l 371 -217 l 171 411 l 33 411 z "},"∞":{"ha":1190,"x_min":92,"x_max":1097,"o":"m 340 629 q 594 492 475 629 q 849 629 714 629 q 1030 555 963 629 q 1097 368 1097 481 q 1028 182 1097 256 q 843 108 958 108 q 710 141 765 108 q 594 238 654 174 q 479 141 535 174 q 346 108 424 108 q 161 182 231 108 q 92 368 92 256 q 160 555 92 481 q 340 629 228 629 m 344 276 q 482 365 399 276 q 340 464 390 464 q 292 438 311 464 q 274 372 274 411 q 293 304 274 332 q 344 276 313 276 m 849 464 q 708 365 800 464 q 844 276 789 276 q 896 304 876 276 q 915 372 915 332 q 897 438 915 411 q 849 464 879 464 z "},"∫":{"ha":606,"x_min":14,"x_max":588,"o":"m 493 1014 q 419 969 440 1014 q 397 831 397 925 q 407 519 397 738 q 417 151 417 300 q 160 -225 417 -225 q 81 -214 126 -225 q 14 -190 36 -203 l 43 -25 q 126 -49 90 -49 q 204 6 181 -49 q 228 176 228 60 q 217 488 228 292 q 207 794 207 683 q 218 969 207 906 q 256 1085 229 1032 q 461 1193 313 1193 q 588 1164 535 1193 l 564 1000 q 493 1014 521 1014 z "},"≈":{"ha":933,"x_min":113,"x_max":824,"o":"m 364 365 q 308 269 307 365 l 113 269 q 173 487 113 407 q 328 567 233 567 q 470 516 389 567 q 572 465 551 465 q 628 553 628 465 q 628 561 628 557 l 824 561 q 764 343 824 422 q 610 264 704 264 q 532 279 564 264 q 481 306 500 294 q 441 330 461 318 q 411 347 421 342 q 364 365 382 365 m 364 700 q 308 604 307 700 l 113 604 q 173 822 113 742 q 328 901 233 901 q 470 851 389 901 q 572 800 551 800 q 628 888 628 800 q 628 896 628 892 l 824 896 q 764 678 824 757 q 610 599 704 599 q 532 614 564 599 q 481 641 500 629 q 441 665 461 653 q 411 683 421 676 q 364 700 382 700 z "},"≠":{"ha":896,"x_min":88,"x_max":806,"o":"m 88 592 l 88 760 l 451 760 l 549 971 l 746 971 l 649 760 l 806 760 l 806 592 l 572 592 l 514 465 l 806 465 l 806 297 l 438 297 l 340 85 l 144 85 l 242 297 l 88 297 l 88 465 l 318 465 l 375 592 l 88 592 z "},"≤":{"ha":863,"x_min":86,"x_max":763,"o":"m 86 453 l 86 643 l 761 961 l 761 757 l 315 551 l 761 340 l 761 135 l 86 453 m 86 -97 l 86 71 l 763 71 l 763 -97 l 86 -97 z "},"≥":{"ha":863,"x_min":100,"x_max":776,"o":"m 776 643 l 776 453 l 101 135 l 101 340 l 547 551 l 101 757 l 101 961 l 776 643 m 776 71 l 776 -97 l 100 -97 l 100 71 l 776 71 z "},"◊":{"ha":883,"x_min":117,"x_max":767,"o":"m 117 46 l 117 650 l 767 650 l 767 46 l 117 46 z "},"ﬁ":{"ha":964,"x_min":50,"x_max":883,"o":"m 347 790 l 347 740 l 528 740 l 528 590 l 347 590 l 347 0 l 138 0 l 138 590 l 50 590 l 50 740 l 138 740 l 138 786 q 212 980 138 908 q 397 1051 286 1051 q 597 968 507 1051 l 522 828 q 421 881 476 881 q 368 858 389 881 q 347 790 347 835 m 865 0 l 657 0 l 657 747 l 865 747 l 865 0 m 674 842 q 657 860 674 842 q 639 929 639 878 q 674 1016 639 981 q 761 1051 710 1051 q 848 1016 813 1051 q 883 929 883 981 q 848 842 883 878 q 761 807 813 807 q 674 842 710 807 z "},"ﬂ":{"ha":964,"x_min":50,"x_max":865,"o":"m 347 790 l 347 740 l 528 740 l 528 590 l 347 590 l 347 0 l 138 0 l 138 590 l 50 590 l 50 740 l 138 740 l 138 786 q 212 980 138 908 q 397 1051 286 1051 q 597 968 507 1051 l 522 828 q 421 881 476 881 q 368 858 389 881 q 347 790 347 835 m 865 0 l 657 0 l 657 1031 l 865 1031 l 865 0 z "}}}
